<svg width="124" height="31" viewBox="0 0 124 31" fill="none" xmlns="http://www.w3.org/2000/svg">
<mask id="mask0_51_94" style="mask-type:luminance" maskUnits="userSpaceOnUse" x="0" y="0" width="124" height="31">
<path d="M124 0H0V30.6667H124V0Z" fill="white"/>
</mask>
<g mask="url(#mask0_51_94)">
<path d="M20.0684 10.4294C20.0684 11.695 19.8079 12.8564 19.2975 13.9085C18.7975 14.9502 18.1361 15.8408 17.3184 16.5752C16.485 17.3148 15.5319 17.8877 14.4642 18.3044C13.3913 18.7106 12.2975 18.9085 11.1725 18.9085H9.31836V21.096C9.31836 21.5544 9.23503 21.9867 9.06836 22.3877C8.90169 22.7783 8.67773 23.1169 8.40169 23.4085C8.0944 23.7002 7.74544 23.9294 7.36003 24.096C6.9694 24.2627 6.54753 24.346 6.08919 24.346C5.63086 24.346 5.19857 24.2627 4.79753 24.096C4.4069 23.9294 4.07357 23.7002 3.79753 23.4085C3.50586 23.1169 3.27669 22.7783 3.11003 22.3877C2.94336 21.9867 2.86003 21.5544 2.86003 21.096V5.86686C2.8444 5.67415 2.82357 5.48665 2.79753 5.30436C2.76628 5.12728 2.73503 4.94499 2.69336 4.7627C2.61003 4.37728 2.56836 4.02832 2.56836 3.72103C2.56836 3.52832 2.5944 3.34603 2.65169 3.17936C2.7194 3.00228 2.82878 2.85644 2.98503 2.74186C3.13607 2.63249 3.33919 2.54915 3.58919 2.49186C3.84961 2.42415 4.19336 2.3877 4.61003 2.3877H11.5059C12.6309 2.3877 13.7038 2.59603 14.735 3.0127C15.7767 3.42936 16.6934 3.99186 17.485 4.7002C18.2767 5.43978 18.9017 6.29915 19.36 7.28353C19.8288 8.25749 20.0684 9.30436 20.0684 10.4294ZM17.2975 10.596C17.2975 9.69499 17.1152 8.90332 16.7559 8.22103C16.4069 7.54395 15.9277 6.97103 15.3184 6.5127C14.7038 6.05436 13.9902 5.71582 13.1725 5.49186C12.3652 5.27311 11.5111 5.15853 10.61 5.15853H6.02669C5.81836 5.15853 5.67773 5.17415 5.61003 5.2002C5.53711 5.23144 5.50586 5.27832 5.50586 5.34603C5.50586 5.3877 5.51628 5.43978 5.54753 5.49186C5.55794 5.52311 5.56836 5.55436 5.56836 5.59603C5.56836 5.62728 5.56836 5.64811 5.56836 5.65853V21.0752C5.56836 21.2314 5.61523 21.3564 5.71419 21.4502C5.80794 21.5492 5.92773 21.596 6.06836 21.596C6.2194 21.596 6.3444 21.5492 6.44336 21.4502C6.55273 21.3564 6.61003 21.2314 6.61003 21.0752V16.1377H10.61C11.5111 16.1377 12.3652 16.0231 13.1725 15.7835C13.9902 15.5492 14.7038 15.2002 15.3184 14.7419C15.9277 14.2731 16.4069 13.695 16.7559 13.0127C17.1152 12.32 17.2975 11.5127 17.2975 10.596ZM16.2559 10.596C16.2559 11.3617 16.0996 12.0283 15.7975 12.596C15.5059 13.1533 15.0944 13.6169 14.5684 13.9919C14.0684 14.3669 13.4694 14.6481 12.7767 14.8252C12.0788 15.0075 11.36 15.096 10.61 15.096H6.61003V6.17936H10.61C11.36 6.17936 12.0788 6.27311 12.7767 6.4502C13.4694 6.61686 14.0684 6.8877 14.5684 7.2627C15.0944 7.62728 15.5059 8.08561 15.7975 8.6377C16.0996 9.19499 16.2559 9.84603 16.2559 10.596ZM13.4225 10.6169C13.4225 10.0075 13.2038 9.5752 12.7767 9.3252C12.36 9.06478 11.8392 8.93978 11.2142 8.9502L9.29753 8.97103V12.3669H11.2142C11.8392 12.3669 12.36 12.2367 12.7767 11.971C13.2038 11.695 13.4225 11.2419 13.4225 10.6169Z" fill="black"/>
<path d="M22.7946 15.9503V5.65861C22.779 5.49194 22.7581 5.32007 22.7321 5.13778C22.7008 4.94507 22.6696 4.75757 22.6279 4.57528C22.5863 4.38257 22.5498 4.20028 22.5238 4.03361C22.5081 3.86694 22.5029 3.70028 22.5029 3.53361C22.5029 3.32528 22.529 3.13778 22.5863 2.97111C22.654 2.80444 22.7633 2.66903 22.9196 2.55444C23.0706 2.42944 23.2738 2.3409 23.5238 2.28361C23.7842 2.2159 24.1279 2.17944 24.5446 2.17944C25.154 2.17944 25.7373 2.21069 26.2946 2.26278C26.8623 2.30444 27.3623 2.42424 27.7946 2.61694C28.2113 2.81486 28.5498 3.11174 28.8154 3.51278C29.0758 3.91903 29.2217 4.47111 29.2529 5.17944V15.9503C29.2529 16.2159 29.3206 16.4659 29.4613 16.7003C29.5967 16.9399 29.7738 17.1378 29.9821 17.3044C30.4404 17.669 30.9508 17.8461 31.5238 17.8461C32.0342 17.8461 32.5238 17.669 32.9821 17.3044C33.2008 17.1378 33.3831 16.9399 33.5238 16.7003C33.6748 16.4659 33.7529 16.2159 33.7529 15.9503V5.40861C33.7217 5.04924 33.6748 4.73153 33.6071 4.45028C33.5081 4.15861 33.4613 3.85653 33.4613 3.53361C33.4613 3.32528 33.4925 3.13778 33.5654 2.97111C33.6331 2.80444 33.7373 2.66903 33.8779 2.55444C34.029 2.42944 34.2373 2.3409 34.5029 2.28361C34.7633 2.2159 35.0967 2.17944 35.5029 2.17944C36.0706 2.17944 36.6331 2.22111 37.1904 2.30444C37.7425 2.37736 38.2529 2.52319 38.7113 2.74194C39.154 2.9659 39.5133 3.29403 39.7946 3.72111C40.0863 4.1534 40.2321 4.72111 40.2321 5.42944V15.9503C40.2008 17.0909 39.9456 18.1742 39.4613 19.2003C38.9717 20.2159 38.3363 21.1065 37.5446 21.8669C36.7373 22.6169 35.8154 23.2211 34.7738 23.6794C33.7321 24.1222 32.6488 24.3461 31.5238 24.3461C30.3571 24.3461 29.2425 24.1274 28.1904 23.7003C27.1488 23.2576 26.2321 22.6534 25.4404 21.8878C24.6331 21.1274 23.9873 20.2367 23.5029 19.2211C23.029 18.2107 22.7946 17.1169 22.7946 15.9503ZM25.5238 5.49194V15.4711C25.5238 16.3201 25.6748 17.1117 25.9821 17.8461C26.2842 18.5857 26.7113 19.2315 27.2529 19.7836C27.779 20.3565 28.404 20.7992 29.1279 21.1169C29.8467 21.4399 30.6331 21.5961 31.4821 21.5961C32.3154 21.5961 33.0967 21.4399 33.8363 21.1169C34.5706 20.7992 35.2113 20.3565 35.7529 19.7836C36.279 19.2315 36.6956 18.5857 37.0029 17.8461C37.3206 17.1117 37.4821 16.3201 37.4821 15.4711V5.97111C37.4821 5.62736 37.4456 5.38257 37.3779 5.24194C37.305 5.0909 37.1592 5.01278 36.9404 5.01278C36.7321 5.01278 36.5967 5.0284 36.5446 5.05444C36.4717 5.09611 36.4404 5.14819 36.4404 5.20028C36.4404 5.23153 36.4456 5.2784 36.4613 5.34611C36.4717 5.38778 36.4821 5.43986 36.4821 5.49194V15.4919C36.4821 16.2003 36.3467 16.8669 36.0863 17.4919C35.8363 18.1065 35.4821 18.6482 35.0238 19.1169C34.5758 19.5753 34.0498 19.9399 33.4404 20.2003C32.8258 20.4659 32.1748 20.5961 31.4821 20.5961C30.7998 20.5961 30.1592 20.4659 29.5654 20.2003C28.9665 19.9399 28.4404 19.5753 27.9821 19.1169C27.5342 18.6482 27.18 18.1065 26.9196 17.4919C26.654 16.8669 26.5238 16.2003 26.5238 15.4919V5.95028C26.5238 5.32528 26.3415 5.01278 25.9821 5.01278C25.7842 5.01278 25.654 5.0284 25.5863 5.05444C25.5133 5.09611 25.4821 5.14819 25.4821 5.20028C25.4821 5.23153 25.4925 5.2784 25.5238 5.34611C25.5238 5.38778 25.5238 5.43986 25.5238 5.49194Z" fill="black"/>
<path d="M61.667 10.4294C61.667 11.1273 61.5889 11.7835 61.4378 12.4085C61.2972 13.0335 61.0837 13.6169 60.792 14.1585C60.5107 14.7158 60.1722 15.2314 59.7712 15.7002C59.3649 16.1585 58.9274 16.5752 58.4587 16.9502L60.3337 19.1794C60.5837 19.471 60.7607 19.7939 60.8753 20.1377C61.0003 20.471 61.0628 20.8148 61.0628 21.1585C61.0628 22.0075 60.7555 22.7314 60.1462 23.3252C59.8649 23.6325 59.5264 23.8669 59.1253 24.0335C58.7347 24.2106 58.318 24.3044 57.8753 24.3044C57.417 24.3044 56.9795 24.2054 56.5628 24.0127C56.1462 23.82 55.7816 23.5335 55.4795 23.1585L52.3337 18.9085H50.917V21.096C50.917 21.5544 50.8337 21.9867 50.667 22.3877C50.5003 22.7783 50.2764 23.1169 50.0003 23.4085C49.693 23.7002 49.3441 23.9294 48.9587 24.096C48.568 24.2627 48.1462 24.346 47.6878 24.346C47.2295 24.346 46.7972 24.2627 46.3962 24.096C46.0055 23.9294 45.6722 23.7002 45.3962 23.4085C45.1045 23.1169 44.8753 22.7783 44.7087 22.3877C44.542 21.9867 44.4587 21.5544 44.4587 21.096V5.86686C44.443 5.67415 44.4222 5.48665 44.3962 5.30436C44.3649 5.12728 44.3337 4.94499 44.292 4.7627C44.2087 4.37728 44.167 4.02832 44.167 3.72103C44.167 3.52832 44.193 3.34603 44.2503 3.17936C44.318 3.00228 44.4274 2.85644 44.5837 2.74186C44.7347 2.63249 44.9378 2.54915 45.1878 2.49186C45.4482 2.42415 45.792 2.3877 46.2087 2.3877H53.1045C54.2295 2.3877 55.3024 2.59603 56.3337 3.0127C57.3753 3.42936 58.292 3.99186 59.0837 4.7002C59.8753 5.43978 60.5003 6.29915 60.9587 7.28353C61.4274 8.25749 61.667 9.30436 61.667 10.4294ZM58.8962 10.596C58.8962 9.69499 58.7139 8.90332 58.3545 8.22103C58.0055 7.54395 57.5264 6.97103 56.917 6.5127C56.3024 6.05436 55.5889 5.71582 54.7712 5.49186C53.9639 5.27311 53.1097 5.15853 52.2087 5.15853H47.6253C47.417 5.15853 47.2764 5.17415 47.2087 5.2002C47.1357 5.23144 47.1045 5.27832 47.1045 5.34603C47.1045 5.3877 47.1149 5.43978 47.1462 5.49186C47.1566 5.52311 47.167 5.55436 47.167 5.59603C47.167 5.62728 47.167 5.64811 47.167 5.65853V21.0752C47.167 21.2314 47.2139 21.3564 47.3128 21.4502C47.4066 21.5492 47.5264 21.596 47.667 21.596C47.818 21.596 47.943 21.5492 48.042 21.4502C48.1514 21.3564 48.2087 21.2314 48.2087 21.0752V16.1377H52.2087C52.5264 16.1377 52.8441 16.1273 53.167 16.096L57.3753 21.2627C57.5003 21.4033 57.6357 21.471 57.792 21.471C57.9274 21.471 58.042 21.4242 58.1253 21.3252C58.2191 21.2158 58.2712 21.096 58.2712 20.971C58.2712 20.8617 58.2399 20.7731 58.1878 20.7002L54.2503 15.9294C55.6253 15.6377 56.7347 15.0439 57.5837 14.1377C58.0003 13.695 58.318 13.1794 58.542 12.596C58.7764 12.0023 58.8962 11.3356 58.8962 10.596ZM57.8545 10.596C57.8545 11.3617 57.6982 12.0283 57.3962 12.596C57.1045 13.1533 56.693 13.6169 56.167 13.9919C55.667 14.3669 55.068 14.6481 54.3753 14.8252C53.6774 15.0075 52.9587 15.096 52.2087 15.096H48.2087V6.17936H52.2087C52.9587 6.17936 53.6774 6.27311 54.3753 6.4502C55.068 6.61686 55.667 6.8877 56.167 7.2627C56.693 7.62728 57.1045 8.08561 57.3962 8.6377C57.6982 9.19499 57.8545 9.84603 57.8545 10.596ZM55.0212 10.6169C55.0212 10.0075 54.8024 9.5752 54.3753 9.3252C53.9587 9.06478 53.4378 8.93978 52.8128 8.9502L50.8962 8.97103V12.3669H52.8128C53.4378 12.3669 53.9587 12.2367 54.3753 11.971C54.8024 11.695 55.0212 11.2419 55.0212 10.6169Z" fill="black"/>
<path d="M81.2738 20.7629C81.2738 21.2212 81.1904 21.6535 81.0238 22.0545C80.8571 22.4452 80.6279 22.7837 80.3363 23.0754C80.0446 23.367 79.6956 23.5962 79.2946 23.7629C78.8883 23.9295 78.4665 24.0129 78.0238 24.0129H68.0238C67.5654 24.0129 67.1331 23.9295 66.7321 23.7629C66.3415 23.5962 66.0081 23.367 65.7321 23.0754C65.4404 22.7993 65.2113 22.4608 65.0446 22.0545C64.8779 21.6535 64.7946 21.2212 64.7946 20.7629V5.76286C64.779 5.58578 64.7581 5.40348 64.7321 5.22119C64.7008 5.04411 64.6696 4.86182 64.6279 4.67952C64.5863 4.48682 64.5498 4.30452 64.5238 4.13786C64.5081 3.96078 64.5029 3.79411 64.5029 3.63786C64.5029 3.42952 64.529 3.24202 64.5863 3.07536C64.654 2.90869 64.7633 2.77327 64.9196 2.65869C65.0706 2.53369 65.2738 2.44515 65.5238 2.38786C65.7842 2.32015 66.1279 2.28369 66.5446 2.28369H77.6904C78.2008 2.28369 78.6592 2.37744 79.0654 2.55452C79.4821 2.73682 79.8363 2.98682 80.1279 3.30452C80.404 3.62744 80.6175 3.98682 80.7738 4.38786C80.9248 4.79411 81.0029 5.19515 81.0029 5.59619C81.0029 6.00244 80.9248 6.39827 80.7738 6.78369C80.6331 7.17432 80.4248 7.51286 80.1488 7.80452C79.8675 8.09619 79.5238 8.34098 79.1071 8.53369C78.6904 8.71598 78.2165 8.80452 77.6904 8.80452H71.2529V9.95036H75.9404C76.4248 9.95036 76.8571 10.0441 77.2321 10.2212C77.6175 10.3879 77.9456 10.617 78.2113 10.9087C78.7529 11.5077 79.0238 12.216 79.0238 13.0337C79.0238 13.466 78.9456 13.867 78.7946 14.242C78.6383 14.617 78.4248 14.9452 78.1488 15.2212C77.8675 15.5024 77.5446 15.7212 77.1696 15.8879C76.7946 16.0441 76.3831 16.117 75.9404 16.117H71.2529V17.5129H78.0238C78.4665 17.5129 78.8883 17.5962 79.2946 17.7629C79.6956 17.9295 80.0446 18.1587 80.3363 18.4504C80.6279 18.7316 80.8571 19.0702 81.0238 19.4712C81.1904 19.8774 81.2738 20.3045 81.2738 20.7629ZM78.5654 20.7837C78.5654 20.5649 78.4873 20.4243 78.3363 20.367C78.18 20.3149 78.0081 20.2837 77.8154 20.2837H68.5238V13.5337H75.6904C75.8571 13.5337 75.9873 13.492 76.0863 13.4087C76.1956 13.3254 76.2529 13.2004 76.2529 13.0337C76.2529 12.841 76.1904 12.716 76.0654 12.6587C75.9508 12.591 75.8206 12.5545 75.6696 12.5545H68.5238V6.05452H77.6279C77.805 6.05452 77.9456 6.00765 78.0446 5.90869C78.154 5.79932 78.2113 5.67952 78.2113 5.55452C78.2113 5.42952 78.154 5.32015 78.0446 5.22119C77.9456 5.11182 77.7946 5.05452 77.5863 5.05452H67.7738C67.6488 5.05452 67.5654 5.07536 67.5238 5.11702C67.4821 5.15869 67.4613 5.21078 67.4613 5.26286C67.4613 5.30452 67.4613 5.34619 67.4613 5.38786C67.4717 5.41911 67.4873 5.45036 67.5029 5.49202C67.5029 5.54932 67.5029 5.59619 67.5029 5.63786C67.5133 5.66911 67.5238 5.69515 67.5238 5.72119V20.3254C67.5238 20.6483 67.5863 20.8879 67.7113 21.0545C67.8363 21.2108 68.0706 21.2837 68.4196 21.2837H77.8779C78.0446 21.2837 78.1956 21.2524 78.3363 21.1795C78.4873 21.0962 78.5654 20.966 78.5654 20.7837Z" fill="black"/>
<path d="M101.149 5.78361C101.149 6.20028 101.066 6.61694 100.899 7.03361C100.743 7.45028 100.53 7.83569 100.254 8.17944L92.8994 17.5961H97.9619C99.0296 17.5961 99.8577 17.8826 100.441 18.4503C101.035 19.0232 101.337 19.794 101.337 20.7628C101.337 21.2211 101.243 21.6482 101.066 22.0336C100.899 22.4242 100.67 22.7628 100.379 23.0544C100.071 23.3461 99.7223 23.5857 99.3369 23.7628C98.9463 23.9294 98.5296 24.0128 98.0869 24.0128H86.5661C86.0088 24.0128 85.5244 23.9242 85.1077 23.7419C84.6911 23.5649 84.3369 23.3201 84.0452 23.0128C83.7536 22.7211 83.5296 22.3826 83.3786 21.9919C83.2223 21.5909 83.1494 21.169 83.1494 20.7211C83.1494 20.2784 83.2432 19.8617 83.4411 19.4711C83.6338 19.0857 83.8682 18.7211 84.1494 18.3878L91.3369 9.01278H86.5661C86.1182 9.01278 85.6963 8.92944 85.2952 8.76278C84.9046 8.59611 84.5661 8.37736 84.2744 8.09611C83.9827 7.80444 83.7432 7.4659 83.5661 7.07528C83.3994 6.67424 83.3161 6.24194 83.3161 5.78361C83.3161 5.32528 83.3994 4.9034 83.5661 4.51278C83.7432 4.11174 83.9827 3.76278 84.2744 3.47111C84.5661 3.19507 84.9046 2.97111 85.2952 2.80444C85.6963 2.63778 86.1182 2.55444 86.5661 2.55444H97.8994C98.3421 2.55444 98.7588 2.63778 99.1494 2.80444C99.5505 2.97111 99.8994 3.19507 100.191 3.47111C100.493 3.7784 100.733 4.12736 100.899 4.51278C101.066 4.9034 101.149 5.32528 101.149 5.78361ZM98.3786 5.82528C98.3786 5.7159 98.3369 5.60653 98.2536 5.49194C98.1702 5.38257 98.014 5.32528 97.7952 5.32528H86.4619C86.2536 5.32528 86.1077 5.38778 86.0244 5.51278C85.9515 5.63778 85.9202 5.74194 85.9202 5.82528C85.9202 5.92424 85.9619 6.0284 86.0452 6.13778C86.139 6.23674 86.2744 6.28361 86.4411 6.28361L97.0036 6.24194C95.3473 8.3409 93.7015 10.4503 92.0661 12.5753C90.4255 14.6899 88.8005 16.7836 87.1911 18.8669L86.7952 19.3669C86.639 19.5492 86.5036 19.7315 86.3786 19.9086C86.2536 20.0753 86.1494 20.2367 86.0661 20.3878C85.9671 20.544 85.9202 20.6742 85.9202 20.7836C85.9202 21.0232 85.988 21.169 86.1286 21.2211C86.2796 21.2628 86.4463 21.2836 86.6286 21.2836H98.0661C98.1598 21.2836 98.2744 21.2524 98.3994 21.1794C98.5244 21.0961 98.5869 20.9659 98.5869 20.7836C98.5869 20.6482 98.5348 20.5336 98.4411 20.4503C98.3421 20.3669 98.2223 20.3253 98.0869 20.3253H87.3577L97.1702 7.61694C97.2119 7.56486 97.2588 7.50236 97.3161 7.42944C97.3682 7.34611 97.4307 7.27319 97.5036 7.20028C97.639 7.03361 97.7744 6.86174 97.8994 6.67944C98.0348 6.50236 98.1546 6.33569 98.2536 6.17944C98.3369 6.0284 98.3786 5.90861 98.3786 5.82528Z" fill="black"/>
<path d="M113.067 2.61694C113.453 2.61694 113.802 2.67944 114.109 2.80444C114.427 2.92944 114.713 3.09611 114.963 3.30444C115.213 3.5284 115.432 3.78361 115.63 4.07528C115.823 4.36694 115.994 4.67944 116.151 5.01278L122.297 19.9294C122.38 20.1274 122.432 20.3201 122.463 20.5128C122.489 20.7107 122.51 20.9034 122.526 21.0961C122.526 21.5544 122.432 21.9815 122.255 22.3669C122.073 22.7576 121.838 23.0961 121.547 23.3878C121.239 23.6794 120.89 23.9086 120.505 24.0753C120.13 24.2524 119.724 24.3461 119.297 24.3461C118.974 24.3461 118.656 24.294 118.338 24.2003C118.031 24.1169 117.744 23.9867 117.484 23.8044C117.203 23.6378 116.953 23.4242 116.734 23.1586C116.526 22.8982 116.359 22.5961 116.234 22.2628L116.13 21.9711H109.713L109.609 22.2628C109.385 22.8878 109.005 23.3982 108.463 23.7836C107.932 24.1586 107.323 24.3461 106.63 24.3461C106.14 24.3461 105.698 24.2524 105.297 24.0753C104.89 23.8982 104.547 23.6534 104.255 23.3461C103.963 23.0544 103.734 22.7159 103.567 22.3253C103.401 21.9242 103.317 21.5076 103.317 21.0753C103.317 20.8565 103.343 20.6586 103.401 20.4919C103.453 20.3253 103.526 20.1378 103.609 19.9294L109.484 5.78361C109.593 5.53361 109.672 5.29403 109.713 5.05444C109.765 4.80444 109.828 4.56486 109.901 4.32528C109.968 4.0909 110.057 3.86694 110.172 3.65861C110.297 3.4659 110.468 3.29403 110.692 3.13778C110.927 2.97111 111.234 2.8409 111.609 2.74194C111.802 2.70028 112.015 2.67424 112.255 2.65861C112.505 2.63257 112.776 2.61694 113.067 2.61694ZM106.401 21.5336C106.453 21.5753 106.526 21.5961 106.609 21.5961C106.703 21.5961 106.786 21.5649 106.859 21.4919C106.942 21.4242 107.031 21.294 107.13 21.0961L107.922 19.2211H117.942L118.713 21.0753C118.765 21.2315 118.838 21.3565 118.922 21.4503C119.005 21.5336 119.114 21.5753 119.255 21.5753C119.406 21.5753 119.531 21.5284 119.63 21.4294C119.724 21.3357 119.776 21.2211 119.776 21.0961C119.776 21.044 119.765 20.9919 119.755 20.9503C119.739 20.8982 119.724 20.8461 119.713 20.8044L113.901 6.53361C113.869 6.4659 113.843 6.39819 113.817 6.32528C113.786 6.25757 113.76 6.18986 113.734 6.11694C113.677 5.98153 113.614 5.85653 113.547 5.74194C113.474 5.63257 113.385 5.53361 113.276 5.45028C113.161 5.38257 113.026 5.34611 112.859 5.34611C112.718 5.34611 112.635 5.39819 112.609 5.49194C112.593 5.54924 112.573 5.60653 112.547 5.65861C112.531 5.7159 112.51 5.7784 112.484 5.84611L106.192 20.8461C106.151 20.9451 106.13 21.0492 106.13 21.1586C106.13 21.2836 106.156 21.3774 106.213 21.4294C106.281 21.4867 106.343 21.5232 106.401 21.5336ZM117.526 18.2211H108.338L113.047 7.17944L117.526 18.2211ZM112.276 15.5753H113.838L113.047 13.5544L112.276 15.5753Z" fill="black"/>
</g>
</svg>
