<svg width="146" height="24" viewBox="0 0 146 24" fill="none" xmlns="http://www.w3.org/2000/svg">
<path d="M0 23.0417V22.3125C1.375 22.3125 2.53125 21.1771 3.47917 18.8958L11.2708 0H12.7292L21.25 20.8958C21.4687 21.3958 21.7187 21.7604 22 21.9792C22.2917 22.2031 22.7552 22.3125 23.3958 22.3125V23.0417H13.3542V22.3125C14.1979 22.3125 14.625 21.9948 14.625 21.3542C14.6354 20.7187 14.3958 19.7292 13.8958 18.3958L12.8542 15.7083H6.0625L5.625 16.7083C4.75 18.7917 4.45833 20.25 4.75 21.0833C5.05208 21.9063 6.03125 22.3125 7.6875 22.3125V23.0417H0ZM6.52083 14.5833H12.4375L9.60417 7.29167L6.52083 14.5833Z" fill="black"/>
<path d="M24.833 23.0417V22.3125C25.5257 22.2448 25.9893 22.125 26.2288 21.9583C26.4788 21.7813 26.6038 21.4531 26.6038 20.9792V2.5625C26.6038 2.09375 26.4788 1.77083 26.2288 1.60417C25.9893 1.42708 25.5257 1.30208 24.833 1.22917V0.5H35.0413V1.22917C34.333 1.30208 33.8538 1.42708 33.6038 1.60417C33.3643 1.77083 33.2497 2.09375 33.2497 2.5625V11.1667H39.6663V2.5625C39.6663 2.09375 39.5413 1.77083 39.2913 1.60417C39.0518 1.42708 38.583 1.30208 37.8747 1.22917V0.5H48.083V1.22917C47.3747 1.30208 46.8955 1.42708 46.6455 1.60417C46.4059 1.77083 46.2913 2.09375 46.2913 2.5625V20.9792C46.2913 21.4531 46.4059 21.7813 46.6455 21.9583C46.8955 22.125 47.3747 22.2448 48.083 22.3125V23.0417H37.8747V22.3125C38.583 22.2448 39.0518 22.125 39.2913 21.9583C39.5413 21.7813 39.6663 21.4531 39.6663 20.9792V12.3125H33.2497V20.9792C33.2497 21.4531 33.3643 21.7813 33.6038 21.9583C33.8538 22.125 34.333 22.2448 35.0413 22.3125V23.0417H24.833Z" fill="black"/>
<path d="M62.0999 23.5417C59.8499 23.5417 57.8708 23.0469 56.1624 22.0625C54.4645 21.0781 53.1416 19.7031 52.1833 17.9375C51.2354 16.1771 50.7666 14.1198 50.7666 11.7708C50.7666 9.41146 51.2354 7.35417 52.1833 5.60417C53.1416 3.84375 54.4645 2.46875 56.1624 1.47917C57.8708 0.494792 59.8499 0 62.0999 0C64.376 0 66.3604 0.494792 68.0583 1.47917C69.751 2.46875 71.0687 3.84375 72.0166 5.60417C72.9593 7.35417 73.4333 9.41146 73.4333 11.7708C73.4333 14.1198 72.9593 16.1771 72.0166 17.9375C71.0687 19.7031 69.751 21.0781 68.0583 22.0625C66.3604 23.0469 64.376 23.5417 62.0999 23.5417ZM62.0999 22.5208C62.9593 22.5208 63.7093 22.0781 64.3499 21.1875C65.001 20.2865 65.5062 19.0313 65.8708 17.4167C66.2301 15.7917 66.4124 13.9115 66.4124 11.7708C66.4124 9.63542 66.2301 7.76042 65.8708 6.14583C65.5062 4.52083 65.001 3.26563 64.3499 2.375C63.7093 1.48958 62.9593 1.04167 62.0999 1.04167C61.2354 1.04167 60.4854 1.48958 59.8499 2.375C59.2093 3.26563 58.7093 4.52083 58.3499 6.14583C57.9854 7.76042 57.8083 9.63542 57.8083 11.7708C57.8083 13.9115 57.9854 15.7917 58.3499 17.4167C58.7093 19.0313 59.2093 20.2865 59.8499 21.1875C60.4854 22.0781 61.2354 22.5208 62.0999 22.5208Z" fill="black"/>
<path d="M76.0645 23.0417V22.3125C76.7728 22.2448 77.2415 22.125 77.4811 21.9583C77.7311 21.7813 77.8561 21.4531 77.8561 20.9792V2.5625C77.8561 2.09375 77.7207 1.77083 77.4603 1.60417C77.2103 1.4375 76.7415 1.3125 76.0645 1.22917V0.5H87.3353C89.0124 0.5 90.4915 0.682292 91.7728 1.04167C93.0488 1.39063 94.0488 1.96875 94.7728 2.77083C95.5072 3.57813 95.877 4.66667 95.877 6.04167C95.877 7.45833 95.4707 8.59375 94.6686 9.4375C93.8613 10.2865 92.7832 10.9479 91.4395 11.4167L96.4186 20.9792C96.6113 21.3542 96.8561 21.6615 97.1478 21.8958C97.4499 22.1354 97.7988 22.2708 98.1895 22.3125V23.0417H88.252V22.3125C88.9603 22.2448 89.4238 22.125 89.6478 21.9583C89.8822 21.7813 89.8978 21.4531 89.6895 20.9792L86.002 13.0417L84.4811 13.1875V20.9792C84.4811 21.4531 84.5957 21.7813 84.8353 21.9583C85.0853 22.125 85.5645 22.2448 86.2728 22.3125V23.0417H76.0645ZM84.4811 12.0625L85.5645 11.875C86.6061 11.6823 87.5072 11.1667 88.2728 10.3333C89.0488 9.48958 89.4499 8.25 89.4811 6.625C89.5072 5.33333 89.3405 4.32813 88.9811 3.60417C88.6322 2.86979 88.1478 2.35417 87.5228 2.0625C86.9082 1.76042 86.1947 1.60417 85.377 1.60417H84.4811V12.0625Z" fill="black"/>
<path d="M99.5615 23.0417V22.3125C100.27 22.2448 100.739 22.125 100.978 21.9583C101.228 21.7813 101.353 21.4531 101.353 20.9792V2.5625C101.353 2.09375 101.218 1.77083 100.957 1.60417C100.707 1.4375 100.239 1.3125 99.5615 1.22917V0.5H110.832C112.509 0.5 113.989 0.682292 115.27 1.04167C116.546 1.39063 117.546 1.96875 118.27 2.77083C119.004 3.57813 119.374 4.66667 119.374 6.04167C119.374 7.45833 118.968 8.59375 118.166 9.4375C117.358 10.2865 116.28 10.9479 114.937 11.4167L119.916 20.9792C120.108 21.3542 120.353 21.6615 120.645 21.8958C120.947 22.1354 121.296 22.2708 121.687 22.3125V23.0417H111.749V22.3125C112.457 22.2448 112.921 22.125 113.145 21.9583C113.379 21.7813 113.395 21.4531 113.187 20.9792L109.499 13.0417L107.978 13.1875V20.9792C107.978 21.4531 108.093 21.7813 108.332 21.9583C108.582 22.125 109.062 22.2448 109.77 22.3125V23.0417H99.5615ZM107.978 12.0625L109.062 11.875C110.103 11.6823 111.004 11.1667 111.77 10.3333C112.546 9.48958 112.947 8.25 112.978 6.625C113.004 5.33333 112.838 4.32813 112.478 3.60417C112.129 2.86979 111.645 2.35417 111.02 2.0625C110.405 1.76042 109.692 1.60417 108.874 1.60417H107.978V12.0625Z" fill="black"/>
<path d="M133.982 23.5417C131.732 23.5417 129.753 23.0469 128.044 22.0625C126.346 21.0781 125.023 19.7031 124.065 17.9375C123.117 16.1771 122.648 14.1198 122.648 11.7708C122.648 9.41146 123.117 7.35417 124.065 5.60417C125.023 3.84375 126.346 2.46875 128.044 1.47917C129.753 0.494792 131.732 0 133.982 0C136.258 0 138.242 0.494792 139.94 1.47917C141.633 2.46875 142.951 3.84375 143.898 5.60417C144.841 7.35417 145.315 9.41146 145.315 11.7708C145.315 14.1198 144.841 16.1771 143.898 17.9375C142.951 19.7031 141.633 21.0781 139.94 22.0625C138.242 23.0469 136.258 23.5417 133.982 23.5417ZM133.982 22.5208C134.841 22.5208 135.591 22.0781 136.232 21.1875C136.883 20.2865 137.388 19.0313 137.753 17.4167C138.112 15.7917 138.294 13.9115 138.294 11.7708C138.294 9.63542 138.112 7.76042 137.753 6.14583C137.388 4.52083 136.883 3.26563 136.232 2.375C135.591 1.48958 134.841 1.04167 133.982 1.04167C133.117 1.04167 132.367 1.48958 131.732 2.375C131.091 3.26563 130.591 4.52083 130.232 6.14583C129.867 7.76042 129.69 9.63542 129.69 11.7708C129.69 13.9115 129.867 15.7917 130.232 17.4167C130.591 19.0313 131.091 20.2865 131.732 21.1875C132.367 22.0781 133.117 22.5208 133.982 22.5208Z" fill="black"/>
</svg>
