<svg width="129" height="23" viewBox="0 0 129 23" fill="none" xmlns="http://www.w3.org/2000/svg">
<path d="M12 18.0625C12 18.7031 11.8854 19.2813 11.6667 19.7917C11.4427 20.3229 11.125 20.7917 10.7083 21.2083C10.3021 21.6146 9.81771 21.9323 9.25 22.1667C8.65104 22.4167 8.0625 22.5417 7.47917 22.5417H4.5C3.92708 22.5417 3.34375 22.4167 2.75 22.1667C2.16667 21.9323 1.6875 21.6146 1.3125 21.2083C0.921875 20.8333 0.604167 20.3646 0.354167 19.7917C0.114584 19.2396 0 18.6615 0 18.0625V4.5C0 3.93229 0.114584 3.34896 0.354167 2.75C0.604167 2.18229 0.921875 1.69792 1.3125 1.29167C1.73958 0.875 2.21875 0.557292 2.75 0.333333C3.27604 0.114584 3.85937 0 4.5 0H7.47917C8.11458 0 8.70833 0.114584 9.25 0.333333C9.52604 0.447917 9.78125 0.583333 10.0208 0.75C10.2552 0.916667 10.4844 1.09896 10.7083 1.29167C10.901 1.51563 11.0833 1.74479 11.25 1.97917C11.4167 2.20313 11.5521 2.45833 11.6667 2.75C11.8854 3.28125 12 3.86458 12 4.5V7.52083H7.47917V4.5H4.5V18.0625H7.47917V15.0417H12V18.0625Z" fill="black"/>
<path d="M26.3799 18.0625C26.3799 18.7031 26.2653 19.2813 26.0465 19.7917C25.8226 20.3229 25.5049 20.7917 25.0882 21.2083C24.682 21.6146 24.1976 21.9323 23.6299 22.1667C23.0309 22.4167 22.4424 22.5417 21.859 22.5417H18.7757C18.1768 22.5417 17.609 22.4167 17.0674 22.1667C16.484 21.9323 16.0049 21.6146 15.6299 21.2083C15.2393 20.8333 14.9215 20.3646 14.6715 19.7917C14.432 19.2396 14.3174 18.6615 14.3174 18.0625V4.5C14.3174 3.93229 14.432 3.34896 14.6715 2.75C14.9215 2.18229 15.2393 1.69792 15.6299 1.29167C16.057 0.875 16.5361 0.557292 17.0674 0.333333C17.5674 0.114584 18.1351 0 18.7757 0H21.859C22.5101 0 23.0986 0.114584 23.6299 0.333333C23.9059 0.447917 24.1611 0.583333 24.4007 0.75C24.6351 0.916667 24.8643 1.09896 25.0882 1.29167C25.2809 1.51563 25.4632 1.74479 25.6299 1.97917C25.7965 2.20313 25.932 2.45833 26.0465 2.75C26.2653 3.28125 26.3799 3.86458 26.3799 4.5V18.0625ZM18.8174 18.0625H21.859V4.5H18.8174V18.0625Z" fill="black"/>
<path d="M41.0313 4.47917V22.5417H36.5104V4.47917H33.5313V22.5417H29.0312V4.47917C29.0312 3.88542 29.1458 3.30729 29.3854 2.75C29.6354 2.18229 29.9531 1.70833 30.3438 1.33333C30.7188 0.932292 31.1979 0.614584 31.7813 0.375C32.375 0.125 32.9583 0 33.5313 0H36.5104C37.0938 0 37.6823 0.125 38.2813 0.375C38.3646 0.390625 38.4375 0.427083 38.5104 0.479167C38.5938 0.520833 38.6771 0.5625 38.7604 0.604167C38.8542 0.5625 38.9375 0.520833 39.0104 0.479167C39.0938 0.427083 39.1771 0.390625 39.2604 0.375C39.8542 0.125 40.4479 0 41.0313 0H44.0104C44.5781 0 45.1615 0.125 45.7604 0.375C46.3281 0.598959 46.8125 0.916667 47.2188 1.33333C47.6354 1.75 47.9531 2.22396 48.1771 2.75C48.3958 3.26563 48.5104 3.84375 48.5104 4.47917V22.5417H44.0104V4.47917H41.0313Z" fill="black"/>
<path d="M63.2324 18.0625C63.2324 18.7031 63.1178 19.2813 62.8991 19.7917C62.6751 20.3229 62.3574 20.7917 61.9408 21.2083C61.5345 21.6146 61.0501 21.9323 60.4824 22.1667C59.8835 22.4167 59.2949 22.5417 58.7116 22.5417H55.6283C55.0293 22.5417 54.4616 22.4167 53.9199 22.1667C53.3366 21.9323 52.8574 21.6146 52.4824 21.2083C52.0918 20.8333 51.7741 20.3646 51.5241 19.7917C51.2845 19.2396 51.1699 18.6615 51.1699 18.0625V4.5C51.1699 3.93229 51.2845 3.34896 51.5241 2.75C51.7741 2.18229 52.0918 1.69792 52.4824 1.29167C52.9095 0.875 53.3887 0.557292 53.9199 0.333333C54.4199 0.114584 54.9876 0 55.6283 0H58.7116C59.3626 0 59.9512 0.114584 60.4824 0.333333C60.7585 0.447917 61.0137 0.583333 61.2533 0.75C61.4876 0.916667 61.7168 1.09896 61.9408 1.29167C62.1335 1.51563 62.3158 1.74479 62.4824 1.97917C62.6491 2.20313 62.7845 2.45833 62.8991 2.75C63.1178 3.28125 63.2324 3.86458 63.2324 4.5V18.0625ZM55.6699 18.0625H58.7116V4.5H55.6699V18.0625Z" fill="black"/>
<path d="M77.8838 18.0625C77.8838 18.7031 77.7692 19.2813 77.5505 19.7917C77.3265 20.3229 77.0088 20.7917 76.5921 21.2083C76.1859 21.6146 75.7015 21.9323 75.1338 22.1667C74.5348 22.4167 73.9463 22.5417 73.363 22.5417H67.238C66.863 22.5417 66.54 22.4115 66.2796 22.1458C66.014 21.8854 65.8838 21.5625 65.8838 21.1875V1.35417C65.8838 0.979167 66.014 0.661459 66.2796 0.395833C66.54 0.135416 66.863 0 67.238 0H73.363C73.9984 0 74.5921 0.114584 75.1338 0.333333C75.4098 0.447917 75.665 0.583333 75.9046 0.75C76.139 0.916667 76.3682 1.09896 76.5921 1.29167C76.7848 1.51563 76.9671 1.74479 77.1338 1.97917C77.3005 2.20313 77.4359 2.45833 77.5505 2.75C77.7692 3.28125 77.8838 3.86458 77.8838 4.5V18.0625ZM70.3838 18.0625H73.363V4.5H70.3838V18.0625Z" fill="black"/>
<path d="M85.0322 0V22.5417H80.5322V0H85.0322Z" fill="black"/>
<path d="M99.6904 18.0625C99.6904 18.7031 99.5758 19.2813 99.3571 19.7917C99.1331 20.3229 98.8154 20.7917 98.3988 21.2083C97.9925 21.6146 97.5081 21.9323 96.9404 22.1667C96.3415 22.4167 95.7529 22.5417 95.1696 22.5417H89.0446C88.6696 22.5417 88.3467 22.4115 88.0863 22.1458C87.8206 21.8854 87.6904 21.5625 87.6904 21.1875V1.35417C87.6904 0.979167 87.8206 0.661459 88.0863 0.395833C88.3467 0.135416 88.6696 0 89.0446 0H95.1696C95.805 0 96.3988 0.114584 96.9404 0.333333C97.2165 0.447917 97.4717 0.583333 97.7113 0.75C97.9456 0.916667 98.1748 1.09896 98.3988 1.29167C98.5915 1.51563 98.7738 1.74479 98.9404 1.97917C99.1071 2.20313 99.2425 2.45833 99.3571 2.75C99.5758 3.28125 99.6904 3.86458 99.6904 4.5V18.0625ZM92.1904 18.0625H95.1696V4.5H92.1904V18.0625Z" fill="black"/>
<path d="M114.339 4.47917V22.5417H109.818V13.5208H106.839V22.5417H102.339V4.47917C102.339 3.88542 102.453 3.30729 102.693 2.75C102.943 2.18229 103.261 1.70833 103.651 1.33333C104.026 0.932292 104.506 0.614584 105.089 0.375C105.683 0.125 106.266 0 106.839 0H109.818C110.401 0 110.99 0.125 111.589 0.375C112.157 0.598959 112.641 0.916667 113.047 1.33333C113.464 1.75 113.782 2.22396 114.006 2.75C114.224 3.26563 114.339 3.84375 114.339 4.47917ZM106.839 9.02083H109.818V4.47917H106.839V9.02083Z" fill="black"/>
<path d="M128.987 18.0625C128.987 18.7031 128.873 19.2813 128.654 19.7917C128.43 20.3229 128.112 20.7917 127.696 21.2083C127.289 21.6146 126.805 21.9323 126.237 22.1667C125.638 22.4167 125.05 22.5417 124.466 22.5417H118.341C117.966 22.5417 117.644 22.4115 117.383 22.1458C117.118 21.8854 116.987 21.5625 116.987 21.1875V1.35417C116.987 0.979167 117.118 0.661459 117.383 0.395833C117.644 0.135416 117.966 0 118.341 0H124.466C125.102 0 125.696 0.114584 126.237 0.333333C126.513 0.447917 126.769 0.583333 127.008 0.75C127.243 0.916667 127.472 1.09896 127.696 1.29167C127.888 1.51563 128.071 1.74479 128.237 1.97917C128.404 2.20313 128.539 2.45833 128.654 2.75C128.873 3.28125 128.987 3.86458 128.987 4.5V18.0625ZM121.487 18.0625H124.466V4.5H121.487V18.0625Z" fill="black"/>
</svg>
