<svg width="179" height="22" viewBox="0 0 179 22" fill="none" xmlns="http://www.w3.org/2000/svg">
<path d="M12.5208 1.41667L18.5 19.6875C18.6094 20.1354 18.7396 20.4948 18.8958 20.7708C19.0469 21.0365 19.125 21.1667 19.125 21.1667C19.125 21.1667 18.9479 21.2135 18.6042 21.3125C18.2708 21.4219 17.8125 21.4792 17.2292 21.4792C16.1302 21.4792 15.4792 21.0156 15.2708 20.0833L13.6458 15.1458H5.45833L3.83333 20.0833C3.63542 21.0156 3 21.4792 1.91667 21.4792C1.34375 21.4792 0.880208 21.4219 0.520833 21.3125C0.171875 21.2135 0 21.1667 0 21.1667C0 21.1667 0.0729173 21.0365 0.229167 20.7708C0.380208 20.4948 0.510416 20.1354 0.625 19.6875L6.625 1.41667C6.73437 0.932292 7.01042 0.578125 7.45833 0.354167C7.90104 0.119792 8.59375 0 9.54167 0C10.5104 0 11.2187 0.119792 11.6667 0.354167C12.125 0.578125 12.4063 0.932292 12.5208 1.41667ZM9.58333 2.6875L6.27083 12.7292H12.8542L9.58333 2.6875Z" fill="black"/>
<path d="M38.8688 1.52083V19.6875C38.8688 20.2604 38.9001 20.6458 38.973 20.8542C39.0563 21.0625 39.098 21.1667 39.098 21.1667C39.098 21.1667 38.973 21.2135 38.723 21.3125C38.473 21.4219 38.1032 21.4792 37.6188 21.4792C36.7126 21.4792 36.1188 21.2396 35.8271 20.7708L25.0563 5.29167V19.6875C25.0563 20.2604 25.0824 20.6458 25.1396 20.8542C25.2074 21.0625 25.2438 21.1667 25.2438 21.1667C25.2438 21.1667 25.1188 21.2135 24.8688 21.3125C24.6292 21.4219 24.2646 21.4792 23.7646 21.4792C23.124 21.4792 22.6292 21.3646 22.2855 21.1458C21.9365 20.9271 21.7646 20.5365 21.7646 19.9792V1.79167C21.7646 1.20833 21.7282 0.822917 21.6605 0.625C21.6032 0.432292 21.5771 0.333333 21.5771 0.333333C21.5771 0.333333 21.7021 0.281251 21.9521 0.166667C22.2021 0.057292 22.5667 0 23.0563 0C23.9417 0 24.5407 0.229167 24.848 0.6875L35.598 16.1667V1.79167C35.598 1.20833 35.5615 0.822917 35.4938 0.625C35.4209 0.432292 35.3896 0.333333 35.3896 0.333333C35.3896 0.333333 35.5146 0.281251 35.7646 0.166667C36.0251 0.057292 36.4001 0 36.8896 0C38.2074 0 38.8688 0.510416 38.8688 1.52083Z" fill="black"/>
<path d="M43.3086 0.291992H57.1628C58.1628 0.291992 58.6628 0.781576 58.6628 1.75033C58.6628 2.16699 58.6107 2.47428 58.5169 2.66699C58.418 2.84928 58.3711 2.93783 58.3711 2.93783C58.3711 2.93783 58.2513 2.91178 58.0169 2.85449C57.7773 2.78678 57.4128 2.75033 56.9128 2.75033H51.7253V19.6878C51.7253 20.2607 51.7565 20.6462 51.8294 20.8545C51.9128 21.0628 51.9544 21.167 51.9544 21.167C51.9544 21.167 51.8294 21.2139 51.5794 21.3128C51.3294 21.4222 50.9596 21.4795 50.4753 21.4795C49.8346 21.4795 49.3346 21.3597 48.9753 21.1253C48.6263 20.891 48.4544 20.5003 48.4544 19.9587V2.75033H43.0586C42.0586 2.75033 41.5586 2.26595 41.5586 1.29199C41.5586 0.849284 41.6055 0.541992 41.7044 0.375326C41.7982 0.198243 41.8503 0.104492 41.8503 0.104492C41.8503 0.104492 41.9648 0.140951 42.2044 0.208659C42.4544 0.265951 42.819 0.291992 43.3086 0.291992Z" fill="black"/>
<path d="M63.3018 21.4792C62.6611 21.4792 62.1663 21.3594 61.8226 21.125C61.4736 20.8906 61.3018 20.5 61.3018 19.9583V1.79167C61.3018 1.20833 61.2653 0.822917 61.1976 0.625C61.1403 0.432292 61.1143 0.333333 61.1143 0.333333C61.1143 0.333333 61.2393 0.281251 61.4893 0.166667C61.7393 0.057292 62.1038 0 62.5934 0C63.2445 0 63.7393 0.119792 64.0726 0.354167C64.4163 0.578125 64.5934 0.968749 64.5934 1.52083V19.6875C64.5934 20.2604 64.6195 20.6458 64.6768 20.8542C64.7445 21.0625 64.7809 21.1667 64.7809 21.1667C64.7809 21.1667 64.6559 21.2135 64.4059 21.3125C64.1663 21.4219 63.8018 21.4792 63.3018 21.4792Z" fill="black"/>
<path d="M77.9098 13.4167H69.889C68.9567 13.4167 68.4932 12.9896 68.4932 12.125C68.4932 11.7083 68.54 11.4323 68.639 11.2917C68.7484 11.1406 68.8057 11.0625 68.8057 11.0625H76.8473C77.7744 11.0625 78.2432 11.4948 78.2432 12.3542C78.2432 12.7708 78.1859 13.0573 78.0765 13.2083C77.9619 13.349 77.9098 13.4167 77.9098 13.4167Z" fill="black"/>
<path d="M89.1888 21.5C87.2409 21.5 85.6992 21.3021 84.5638 20.9167C83.4232 20.5156 82.6107 20.0156 82.1263 19.4167C81.6523 18.8073 81.418 18.2083 81.418 17.625C81.418 17.125 81.4857 16.7865 81.6263 16.6042C81.7773 16.4115 81.8555 16.3125 81.8555 16.3125C81.8555 16.3125 81.9648 16.4531 82.1888 16.7292C82.4076 16.9948 82.793 17.3073 83.3346 17.6667C83.8867 18.0156 84.6471 18.3281 85.6055 18.6042C86.5742 18.8854 87.793 19.0208 89.2513 19.0208C91.0534 19.0208 92.3138 18.7031 93.0221 18.0625C93.7305 17.4271 94.0846 16.5313 94.0846 15.375C94.0846 13.8073 93.2201 12.8021 91.5013 12.3542L86.3555 10.9583C83.2721 10.125 81.7305 8.28646 81.7305 5.4375C81.7305 3.53646 82.3763 2.15625 83.668 1.29167C84.9596 0.432292 86.8607 0 89.3763 0C91.7617 0 93.5846 0.375 94.8346 1.125C96.0846 1.875 96.7096 2.73958 96.7096 3.70833C96.7096 4.22396 96.6315 4.57813 96.4805 4.77083C96.3242 4.95313 96.2513 5.04167 96.2513 5.04167C96.2513 5.04167 96.1576 4.91146 95.9805 4.64583C95.7982 4.36979 95.4805 4.0625 95.0221 3.72917C94.5742 3.38542 93.9284 3.07813 93.0846 2.8125C92.2513 2.55208 91.1784 2.41667 89.8763 2.41667C88.194 2.41667 86.9596 2.66667 86.168 3.16667C85.3867 3.65625 85.0013 4.41667 85.0013 5.45833C85.0013 7.05729 85.8971 8.08333 87.6888 8.54167L92.7305 9.9375C94.4232 10.3542 95.6159 11.0208 96.3138 11.9375C97.0221 12.8437 97.3763 13.9896 97.3763 15.375C97.3763 16.6406 97.1107 17.7292 96.5846 18.6458C96.069 19.5625 95.2148 20.2708 94.0221 20.7708C92.8242 21.2552 91.2148 21.5 89.1888 21.5Z" fill="black"/>
<path d="M111.678 1.41667L117.657 19.6875C117.767 20.1354 117.897 20.4948 118.053 20.7708C118.204 21.0365 118.282 21.1667 118.282 21.1667C118.282 21.1667 118.105 21.2135 117.761 21.3125C117.428 21.4219 116.97 21.4792 116.386 21.4792C115.287 21.4792 114.636 21.0156 114.428 20.0833L112.803 15.1458H104.616L102.991 20.0833C102.793 21.0156 102.157 21.4792 101.074 21.4792C100.501 21.4792 100.037 21.4219 99.6781 21.3125C99.3291 21.2135 99.1572 21.1667 99.1572 21.1667C99.1572 21.1667 99.2301 21.0365 99.3864 20.7708C99.5374 20.4948 99.6676 20.1354 99.7822 19.6875L105.782 1.41667C105.892 0.932292 106.168 0.578125 106.616 0.354167C107.058 0.119792 107.751 0 108.699 0C109.668 0 110.376 0.119792 110.824 0.354167C111.282 0.578125 111.563 0.932292 111.678 1.41667ZM108.741 2.6875L105.428 12.7292H112.011L108.741 2.6875Z" fill="black"/>
<path d="M134.609 14.5833L137.63 19.7917C137.922 20.2813 138.182 20.6354 138.422 20.8542C138.672 21.0625 138.797 21.1667 138.797 21.1667C138.797 21.1667 138.635 21.2135 138.318 21.3125C137.995 21.4219 137.464 21.4792 136.714 21.4792C135.516 21.4792 134.714 21.1354 134.297 20.4375L131.464 15.5C130.922 14.599 130.26 13.9792 129.484 13.6458C128.703 13.3125 127.74 13.1458 126.589 13.1458H124.214V19.6875C124.214 20.2604 124.24 20.6458 124.297 20.8542C124.365 21.0625 124.401 21.1667 124.401 21.1667C124.401 21.1667 124.276 21.2135 124.026 21.3125C123.786 21.4219 123.427 21.4792 122.943 21.4792C122.286 21.4792 121.786 21.3646 121.443 21.1458C121.094 20.9271 120.922 20.5365 120.922 19.9792V2.35417C120.922 1.72917 120.885 1.28125 120.818 1C120.76 0.723959 120.734 0.583333 120.734 0.583333C120.734 0.583333 121.359 0.489584 122.609 0.291667C123.859 0.0989587 125.724 0 128.214 0C131.156 0 133.281 0.536459 134.589 1.60417C135.891 2.67708 136.547 4.26042 136.547 6.35417C136.547 9.5625 135.068 11.5104 132.109 12.1875C132.609 12.4115 133.057 12.7083 133.464 13.0833C133.88 13.4583 134.26 13.9583 134.609 14.5833ZM133.255 6.625C133.255 5.16667 132.828 4.10417 131.984 3.4375C131.135 2.77083 129.823 2.4375 128.047 2.4375C127.297 2.4375 126.589 2.46875 125.922 2.52083C125.266 2.57813 124.698 2.63542 124.214 2.6875V10.7292H128.026C129.87 10.7292 131.203 10.3958 132.026 9.72917C132.844 9.05208 133.255 8.01563 133.255 6.625Z" fill="black"/>
<path d="M154.759 14.5833L157.78 19.7917C158.071 20.2813 158.332 20.6354 158.571 20.8542C158.821 21.0625 158.946 21.1667 158.946 21.1667C158.946 21.1667 158.785 21.2135 158.467 21.3125C158.144 21.4219 157.613 21.4792 156.863 21.4792C155.665 21.4792 154.863 21.1354 154.446 20.4375L151.613 15.5C151.071 14.599 150.41 13.9792 149.634 13.6458C148.853 13.3125 147.889 13.1458 146.738 13.1458H144.363V19.6875C144.363 20.2604 144.389 20.6458 144.446 20.8542C144.514 21.0625 144.55 21.1667 144.55 21.1667C144.55 21.1667 144.425 21.2135 144.175 21.3125C143.936 21.4219 143.576 21.4792 143.092 21.4792C142.436 21.4792 141.936 21.3646 141.592 21.1458C141.243 20.9271 141.071 20.5365 141.071 19.9792V2.35417C141.071 1.72917 141.035 1.28125 140.967 1C140.91 0.723959 140.884 0.583333 140.884 0.583333C140.884 0.583333 141.509 0.489584 142.759 0.291667C144.009 0.0989587 145.873 0 148.363 0C151.306 0 153.431 0.536459 154.738 1.60417C156.04 2.67708 156.696 4.26042 156.696 6.35417C156.696 9.5625 155.217 11.5104 152.259 12.1875C152.759 12.4115 153.207 12.7083 153.613 13.0833C154.03 13.4583 154.41 13.9583 154.759 14.5833ZM153.405 6.625C153.405 5.16667 152.978 4.10417 152.134 3.4375C151.285 2.77083 149.972 2.4375 148.196 2.4375C147.446 2.4375 146.738 2.46875 146.071 2.52083C145.415 2.57813 144.847 2.63542 144.363 2.6875V10.7292H148.175C150.019 10.7292 151.353 10.3958 152.175 9.72917C152.993 9.05208 153.405 8.01563 153.405 6.625Z" fill="black"/>
<path d="M168.941 21.5C165.759 21.5 163.41 20.5833 161.9 18.75C160.384 16.9063 159.629 14.2292 159.629 10.7292C159.629 7.24479 160.384 4.58333 161.9 2.75C163.41 0.916667 165.759 0 168.941 0C172.134 0 174.488 0.916667 176.004 2.75C177.514 4.58333 178.275 7.24479 178.275 10.7292C178.275 14.2292 177.514 16.9063 176.004 18.75C174.488 20.5833 172.134 21.5 168.941 21.5ZM168.941 19.0208C171.025 19.0208 172.551 18.3437 173.525 16.9792C174.493 15.6042 174.983 13.5208 174.983 10.7292C174.983 7.92708 174.493 5.84375 173.525 4.47917C172.551 3.10417 171.025 2.41667 168.941 2.41667C166.868 2.41667 165.348 3.10417 164.379 4.47917C163.405 5.84375 162.921 7.92708 162.921 10.7292C162.921 13.5208 163.405 15.6042 164.379 16.9792C165.348 18.3437 166.868 19.0208 168.941 19.0208Z" fill="black"/>
</svg>
