<svg width="222" height="24" viewBox="0 0 222 24" fill="none" xmlns="http://www.w3.org/2000/svg">
<path d="M0.4375 22.6458C0.145833 22.6458 0 22.5417 0 22.3333C0 22.1823 0.0885416 22.0781 0.270833 22.0208L2.85417 20.8542C3.11458 20.7448 3.27604 20.6458 3.33333 20.5625C3.40104 20.4687 3.46354 20.3073 3.52083 20.0833C3.57292 19.6979 3.60417 19.3542 3.60417 19.0625L3.75 17.2292C3.79167 16.8125 3.81771 16.4063 3.83333 16C3.85938 15.5833 3.88542 15.1667 3.91667 14.75L4.41667 7.33333C4.42708 6.97396 4.44792 6.49479 4.47917 5.89583C4.52083 5.28646 4.54688 4.66146 4.5625 4.02083C4.58854 3.38542 4.60938 2.77083 4.625 2.1875C4.63542 1.59375 4.64583 1.125 4.64583 0.791667V0.0625H7.08333C7.17708 0.354167 7.28125 0.645833 7.39583 0.9375C7.50521 1.21875 7.65625 1.57292 7.85417 2C8.04688 2.41667 8.29688 2.93229 8.60417 3.54167C8.92188 4.14063 9.33854 4.91667 9.85417 5.875L14.3542 14.0208C14.7969 14.8021 15.1563 15.4271 15.4375 15.8958C15.7292 16.3542 15.9688 16.7396 16.1667 17.0417C16.4167 16.6406 16.6146 16.3073 16.7708 16.0417C16.9219 15.7656 17.0625 15.5156 17.1875 15.2917C17.3229 15.0729 17.4479 14.8542 17.5625 14.6458C17.6719 14.4271 17.8021 14.1823 17.9583 13.9167L22.7083 5C23 4.45833 23.25 3.97396 23.4583 3.54167C23.6667 3.11458 23.8542 2.70313 24.0208 2.3125C24.1979 1.92708 24.3594 1.55729 24.5 1.20833C24.651 0.848959 24.7917 0.468749 24.9167 0.0625H27.4375C27.4896 1.32813 27.5521 2.54167 27.625 3.70833C27.7083 4.86458 27.8021 6.03646 27.9167 7.22917L28.6458 14.8125C28.7969 16.4531 28.9219 17.7031 29.0208 18.5625C29.1146 19.4271 29.2083 20.0365 29.2917 20.3958C29.3438 20.5937 29.4063 20.724 29.4792 20.7917C29.5625 20.849 29.7708 20.9479 30.1042 21.0833L32.4167 22.0208C32.6094 22.0781 32.7083 22.1823 32.7083 22.3333C32.7083 22.5417 32.5729 22.6458 32.3125 22.6458H22.6458C22.3542 22.6458 22.2083 22.5417 22.2083 22.3333C22.2083 22.1823 22.3177 22.0781 22.5417 22.0208L24.8542 21.1875C25.2969 21.0104 25.5833 20.8542 25.7083 20.7292C25.8333 20.5937 25.8958 20.3333 25.8958 19.9583C25.8958 19.8073 25.8958 19.6771 25.8958 19.5625C25.8958 19.4531 25.8802 19.3437 25.8542 19.2292L24.7292 6.83333C24.6563 6.95833 24.5938 7.0625 24.5417 7.14583C24.4844 7.22917 24.4583 7.29167 24.4583 7.33333C24.2188 7.78125 23.9792 8.21875 23.7292 8.64583C23.4896 9.07813 23.25 9.52083 23 9.97917L18.6667 18.1667C18.4844 18.5 18.3229 18.7917 18.1875 19.0417C18.0625 19.2917 17.9271 19.5573 17.7917 19.8333C17.6667 20.1146 17.526 20.4115 17.375 20.7292C17.2344 21.0521 17.0677 21.4479 16.875 21.9167L16.5833 22.5417C16.4427 22.8438 16.25 23 16 23C15.7917 23 15.6042 22.8594 15.4375 22.5833L15.25 22.1875C15.2083 22.1354 15.1302 21.9896 15.0208 21.75C14.9063 21.5 14.75 21.1875 14.5417 20.8125C14.4583 20.6458 14.3438 20.4323 14.2083 20.1667C14.0833 19.8906 13.9427 19.6146 13.7917 19.3333C13.651 19.0417 13.5104 18.7813 13.375 18.5417C13.25 18.2917 13.151 18.099 13.0833 17.9583L8.91667 10.4792C8.56771 9.85417 8.25 9.30208 7.95833 8.8125C7.66667 8.3125 7.36458 7.80729 7.0625 7.29167L6.16667 19.5625V20C6.16667 20.2656 6.19271 20.4479 6.25 20.5417C6.31771 20.6406 6.5 20.7448 6.79167 20.8542L9.4375 22.0208C9.61459 22.0781 9.70833 22.1823 9.70833 22.3333C9.70833 22.5417 9.57292 22.6458 9.3125 22.6458H0.4375ZM8.91667 22.2083L6.5 21.2917C6.19271 21.1823 5.98438 21.0625 5.875 20.9375C5.77604 20.8021 5.72917 20.5833 5.72917 20.2917C5.72917 20.1823 5.73438 20.0365 5.75 19.8542C5.76042 19.6771 5.77604 19.4323 5.79167 19.125L6.6875 5.8125L6.20833 2.39583L6.39583 2.8125C6.54688 3.10417 6.6875 3.39063 6.8125 3.66667C6.94792 3.94792 7.09375 4.23958 7.25 4.54167C7.42708 4.90625 7.625 5.28646 7.83333 5.6875C8.04167 6.07813 8.27083 6.49479 8.52083 6.9375C8.78125 7.39583 9.04688 7.86458 9.3125 8.33333C9.57292 8.79167 9.83333 9.25 10.0833 9.70833L14.25 17.0833C14.5833 17.625 14.8385 18.0625 15.0208 18.3958C15.2135 18.7292 15.375 19 15.5 19.2083C15.625 19.4063 15.7083 19.5573 15.75 19.6667C15.8021 19.7813 15.8646 19.875 15.9375 19.9583L15.8125 21.9375V22.1875C15.8125 22.3542 15.8646 22.4375 15.9792 22.4375C16.0208 22.4375 16.0625 22.4115 16.1042 22.3542C16.1458 22.2865 16.2188 22.1406 16.3333 21.9167C16.4271 21.6979 16.526 21.4896 16.625 21.2917C16.7188 21.0833 16.8229 20.8958 16.9375 20.7292C17.0052 20.6198 17.0938 20.4531 17.2083 20.2292C17.3177 20.0104 17.4375 19.7656 17.5625 19.5L18.3333 17.8958L22.6458 9.75L25.0208 5.3125L25.7292 2.1875L27.5208 21.0417C27.0729 21.2083 26.7083 21.3333 26.4167 21.4167C26.125 21.5 25.8385 21.5833 25.5625 21.6667C25.2969 21.7396 25 21.8125 24.6667 21.8958C24.3438 21.9792 23.9427 22.0833 23.4583 22.2083H31.8542L29.7083 21.375C29.3854 21.2656 29.1771 21.1667 29.0833 21.0833C28.9844 21 28.9167 20.8333 28.875 20.5833C28.8333 20.349 28.7969 20.125 28.7708 19.9167C28.7396 19.6979 28.7188 19.4792 28.7083 19.2708C28.7083 19.2187 28.6771 18.974 28.625 18.5417C28.5677 18.1146 28.5104 17.6406 28.4583 17.125C28.401 16.6146 28.3438 16.1406 28.2917 15.7083C28.2344 15.2656 28.2083 15.0156 28.2083 14.9583L27.375 5.64583C27.2604 4.22917 27.1875 3.09896 27.1458 2.25C27.1042 1.39063 27.0677 0.807292 27.0417 0.5H25.2292L25.75 1.45833C25.5521 1.86458 25.3958 2.18229 25.2708 2.41667C25.1458 2.64063 25.0417 2.83333 24.9583 3C24.875 3.16667 24.7917 3.32813 24.7083 3.47917C24.6354 3.63542 24.5469 3.83333 24.4375 4.08333L23.7917 5.27083L19 14.4583C18.2917 15.8073 17.6927 16.9063 17.2083 17.75C16.7344 18.599 16.3854 19.2083 16.1667 19.5833L16.25 17.9583C16.0833 17.724 15.8958 17.4375 15.6875 17.1042C15.4792 16.7604 15.2708 16.4115 15.0625 16.0625C14.8542 15.7031 14.651 15.3698 14.4583 15.0625C14.276 14.7448 14.1302 14.4896 14.0208 14.2917L9.41667 5.9375C9.10938 5.41146 8.8125 4.86979 8.52083 4.3125C8.22917 3.76042 7.95833 3.23958 7.70833 2.75C7.46875 2.26563 7.27083 1.83333 7.10417 1.45833C6.9375 1.07292 6.83333 0.770833 6.79167 0.5625H5.0625L5.89583 1.52083L4.64583 21.1875C4.28125 21.3125 3.98438 21.4271 3.75 21.5208C3.52604 21.6042 3.30208 21.6823 3.08333 21.75C2.85938 21.8229 2.61458 21.8906 2.35417 21.9583C2.08854 22.0156 1.75521 22.099 1.35417 22.2083H8.91667Z" fill="black"/>
<path d="M33.4805 22.6462C33.2565 22.6462 33.1471 22.5576 33.1471 22.3753C33.1471 22.2243 33.2305 22.1357 33.3971 22.1045L35.168 21.4587C35.5013 21.3232 35.7617 21.2035 35.9596 21.1045C36.1523 21.0107 36.3034 20.917 36.418 20.8337C36.5273 20.7399 36.6055 20.641 36.6471 20.542C36.6992 20.4482 36.7305 20.3285 36.7305 20.1878C36.7305 19.9274 36.7305 19.6618 36.7305 19.3962C36.7409 19.1357 36.7513 18.7816 36.7513 18.3337C36.7513 17.891 36.7565 17.3232 36.7721 16.6253C36.7826 15.9326 36.793 15.0212 36.793 13.8962V9.75033C36.793 9.55762 36.7826 9.25033 36.7721 8.83366C36.7565 8.40658 36.7409 7.88574 36.7305 7.27116C36.7305 7.02116 36.7305 6.68783 36.7305 6.27116C36.7305 5.85449 36.7148 5.30241 36.6888 4.60449C36.6576 4.07845 36.6367 3.66699 36.6263 3.37533C36.6263 3.07324 36.6107 2.84928 36.5846 2.70866C36.569 2.55762 36.5326 2.45866 36.4805 2.41699C36.4388 2.36491 36.3815 2.30241 36.3138 2.22949C36.1992 2.13574 36.069 2.05762 35.918 2.00033C35.7617 1.93262 35.5221 1.84407 35.1888 1.72949L33.3763 1.02116C33.194 0.969075 33.1055 0.870118 33.1055 0.729492C33.1055 0.552408 33.2565 0.458659 33.5638 0.458659C33.6159 0.458659 33.694 0.458659 33.793 0.458659C33.9023 0.458659 34.0117 0.474284 34.1263 0.500326L38.8346 0.541992C39.6107 0.541992 40.4388 0.531576 41.3138 0.500326C42.1992 0.474284 43.0742 0.437826 43.9388 0.396159C44.7982 0.354492 45.6159 0.312826 46.3971 0.271159C47.1732 0.229492 47.8398 0.177408 48.3971 0.104492L48.4596 5.64616C48.4596 5.87012 48.3659 5.97949 48.1888 5.97949C48.0482 5.97949 47.9388 5.87012 47.8555 5.64616L47.2305 4.10449C47.0742 3.72949 46.9284 3.43783 46.793 3.22949C46.668 3.01074 46.4596 2.84928 46.168 2.75033C45.8763 2.64095 45.4648 2.57845 44.9388 2.56283C44.4232 2.53678 43.7096 2.52116 42.793 2.52116C42.043 2.52116 41.4492 2.52116 41.0221 2.52116C40.6055 2.52116 40.2096 2.53678 39.8346 2.56283L39.8971 10.1462C40.6055 10.1878 41.1523 10.2087 41.543 10.2087C41.944 10.2087 42.3659 10.2087 42.8138 10.2087C43.3659 10.2087 43.8242 10.2035 44.1888 10.1878C44.5638 10.1618 44.8555 10.1149 45.0638 10.042C45.2826 9.97428 45.4648 9.88574 45.6055 9.77116C45.7565 9.64616 45.9023 9.48991 46.043 9.29199L46.6263 8.33366C46.7617 8.12533 46.8763 8.02116 46.9596 8.02116C47.1107 8.02116 47.1888 8.13574 47.1888 8.35449L47.2305 15.2087C47.2305 15.4587 47.1367 15.5837 46.9596 15.5837C46.8346 15.5837 46.7357 15.5107 46.668 15.3545L45.8763 13.5212C45.7357 13.2607 45.6263 13.0524 45.543 12.8962C45.4701 12.7451 45.3867 12.6357 45.293 12.5628C45.2096 12.4795 45.0951 12.4326 44.9596 12.417C44.8346 12.391 44.6732 12.3753 44.4805 12.3753L43.9388 12.3337L40.6263 12.2712C40.5846 12.2712 40.4909 12.2712 40.3555 12.2712C40.2305 12.2712 40.0742 12.2816 39.8971 12.292V17.9378C39.8971 18.6462 39.9076 19.1826 39.9388 19.542C39.9805 19.891 40.0326 20.1201 40.1055 20.2295C40.1732 20.3545 40.3451 20.4326 40.6263 20.4587C41.3607 20.4743 42.0326 20.4899 42.6471 20.5003C43.2721 20.516 43.7513 20.5212 44.0846 20.5212C44.8034 20.5212 45.3867 20.516 45.8346 20.5003C46.2773 20.4743 46.6315 20.4118 46.8971 20.3128C47.1576 20.2035 47.3607 20.0576 47.5013 19.8753C47.6523 19.6826 47.793 19.4274 47.918 19.1045L48.7513 17.2712C48.8346 17.0941 48.9232 17.0003 49.0221 17.0003C49.0638 17.0003 49.1159 17.0368 49.1888 17.1045C49.2721 17.1774 49.3138 17.2295 49.3138 17.2712L49.293 17.3962L49.2096 20.8753C49.2096 21.266 49.1888 21.5785 49.1471 21.8128C49.1055 22.0368 49.0326 22.2087 48.9388 22.3337C48.8398 22.4482 48.694 22.5316 48.5013 22.5837C48.319 22.6253 48.069 22.6462 47.7513 22.6462H33.4805ZM47.668 22.2503C48.1523 22.2503 48.4492 22.1826 48.5638 22.042C48.6888 21.891 48.7617 21.5316 48.793 20.9587L48.8555 18.292C48.7409 18.667 48.6523 18.9899 48.5846 19.2503C48.5117 19.5003 48.4388 19.7295 48.3555 19.9378C48.2826 20.1462 48.1992 20.3753 48.1055 20.6253C48.0221 20.8649 47.918 21.1618 47.793 21.5212C47.7096 21.2712 47.6107 21.1149 47.5013 21.042C47.4023 21.0003 47.2409 20.9795 47.0221 20.9795H46.5221L40.9388 20.8753C40.4648 20.8753 40.1471 20.8545 39.9805 20.8128C39.8138 20.7607 39.6992 20.641 39.6471 20.4587C39.5898 20.3232 39.5482 19.9482 39.5221 19.3337C39.4909 18.7087 39.4805 17.9274 39.4805 16.9795V11.8753H44.418C44.9857 11.8753 45.3555 11.8545 45.5221 11.8128C45.6888 11.7607 45.8607 11.6357 46.043 11.4378C46.1263 11.7451 46.194 12.0107 46.2513 12.2295C46.3034 12.4378 46.3555 12.6462 46.3971 12.8545C46.4388 13.0628 46.4857 13.292 46.543 13.542C46.5951 13.7816 46.6576 14.0941 46.7305 14.4795L46.793 8.97949C46.7096 9.24512 46.6367 9.45866 46.5846 9.62533C46.5273 9.79199 46.4701 9.95345 46.418 10.1045C46.3763 10.2451 46.319 10.391 46.2513 10.542C46.194 10.6982 46.1263 10.8962 46.043 11.1462C45.944 11.0107 45.8607 10.9118 45.793 10.8545C45.7357 10.7868 45.6523 10.7399 45.543 10.7087C45.444 10.667 45.3138 10.6462 45.1471 10.6462C44.9805 10.6462 44.7565 10.6462 44.4805 10.6462L39.4388 10.5837L39.3971 2.12533H45.3346C45.6367 2.12533 45.8815 2.12533 46.0638 2.12533C46.2409 2.12533 46.3815 2.12012 46.4805 2.10449C46.5742 2.07845 46.6471 2.04199 46.6888 2.00033C46.7409 1.94824 46.7982 1.87533 46.8555 1.79199C46.8815 1.75033 46.9076 1.71907 46.9388 1.68783C46.9805 1.64616 47.0221 1.60449 47.0638 1.56283C47.1888 1.89616 47.293 2.17741 47.3763 2.39616C47.4596 2.62012 47.5273 2.83366 47.5846 3.04199C47.6523 3.25033 47.7201 3.47949 47.793 3.72949C47.8607 3.96907 47.9492 4.27116 48.0638 4.64616V1.16699C48.0638 0.916992 48.0326 0.765951 47.9805 0.708659C47.9232 0.640951 47.8034 0.604492 47.6263 0.604492C47.5534 0.604492 47.4648 0.61491 47.3555 0.625326C47.2409 0.625326 47.1107 0.640951 46.9596 0.666992C46.7357 0.698243 46.3346 0.724284 45.7513 0.750326C45.168 0.781576 44.5013 0.807618 43.7513 0.833659C43.0013 0.86491 42.2201 0.890951 41.418 0.916992C40.6107 0.932618 39.8815 0.937826 39.2305 0.937826C38.8138 0.937826 38.3971 0.937826 37.9805 0.937826C37.5638 0.937826 37.1107 0.927408 36.6263 0.896159H34.1055C34.6055 1.03678 35.0221 1.14616 35.3555 1.22949C35.6888 1.30241 35.9857 1.37533 36.2513 1.45866C36.5117 1.53158 36.793 1.61491 37.0846 1.70866C37.3763 1.80762 37.7305 1.92741 38.1471 2.06283L38.2096 21.0837C37.793 21.266 37.4492 21.4066 37.1888 21.5003C36.9232 21.5993 36.668 21.6878 36.418 21.7712C36.1784 21.8441 35.9232 21.917 35.6471 22.0003C35.3659 22.0732 35.0221 22.1618 34.6055 22.2712L47.668 22.2503Z" fill="black"/>
<path d="M57.8418 17.2712C57.8418 18.7295 57.6178 19.891 57.1751 20.7503C56.7428 21.6149 56.0397 22.2868 55.071 22.7712C54.571 23.0212 53.9876 23.2139 53.321 23.3545C52.6543 23.4899 51.972 23.5628 51.2793 23.5628C50.571 23.5628 50.2168 23.3857 50.2168 23.042C50.2168 22.8857 50.2637 22.7764 50.3626 22.7087C50.4564 22.641 50.6595 22.5732 50.9668 22.5003C51.6022 22.391 52.2064 22.1253 52.7793 21.7087C53.3626 21.292 53.7845 20.8232 54.0501 20.292C54.3001 19.8493 54.4668 19.266 54.5501 18.542C54.6335 17.8076 54.6751 16.7868 54.6751 15.4795V15.042L54.5085 7.45866C54.5085 7.44824 54.498 7.26595 54.4876 6.91699C54.4876 6.55762 54.472 6.17741 54.446 5.77116C54.4303 5.42741 54.4251 5.10449 54.4251 4.81283C54.4251 4.52116 54.4095 4.26595 54.3835 4.04199C54.3835 3.65658 54.3678 3.34928 54.3418 3.12533C54.3262 2.90658 54.3001 2.72949 54.2585 2.60449C54.2168 2.47949 54.1387 2.39095 54.0293 2.33366C53.9303 2.28158 53.7897 2.22428 53.6126 2.16699L50.7793 1.10449C50.597 1.03678 50.5085 0.932618 50.5085 0.791992C50.5085 0.625326 50.623 0.541992 50.8626 0.541992H61.0085C61.2585 0.541992 61.3835 0.625326 61.3835 0.791992C61.3835 0.890951 61.2897 0.995118 61.1126 1.10449L58.4668 2.12533C58.2585 2.19824 58.1022 2.26074 58.0085 2.31283C57.9095 2.37012 57.8314 2.45345 57.7793 2.56283C57.722 2.67741 57.6855 2.82845 57.6751 3.02116C57.6751 3.20345 57.6751 3.45866 57.6751 3.79199C57.6855 3.83366 57.696 3.87533 57.696 3.91699L57.8001 15.292V16.1462L57.8418 17.2712ZM50.9043 23.2087C52.5553 23.1357 53.8522 22.8753 54.8001 22.417C55.7585 21.9482 56.4564 21.2191 56.9043 20.2295C57.0137 19.9378 57.097 19.6618 57.1543 19.3962C57.222 19.1357 57.2689 18.8285 57.3001 18.4795C57.3418 18.1357 57.3678 17.7191 57.3835 17.2295C57.3939 16.7295 57.4043 16.0837 57.4043 15.292L57.2585 3.87533V3.14616C57.2585 2.70345 57.3001 2.40658 57.3835 2.25033C57.4772 2.08366 57.7064 1.94824 58.071 1.83366L60.321 0.958659H51.5085C52.0501 1.07324 52.498 1.16699 52.8626 1.25033C53.2376 1.32324 53.571 1.40658 53.8626 1.50033C54.1647 1.58366 54.4772 1.67741 54.8001 1.77116C55.1178 1.85449 55.5085 1.97428 55.9668 2.12533L56.1751 15.1462V15.542C56.1751 15.641 56.1751 15.8232 56.1751 16.0837C56.1751 16.3493 56.1595 16.6462 56.1335 16.9795C56.1595 17.9535 56.0814 18.7868 55.9043 19.4795C55.7376 20.1774 55.446 20.766 55.0293 21.2503C54.623 21.7399 54.0814 22.1253 53.4043 22.417C52.7376 22.6982 51.9043 22.917 50.9043 23.0837V23.2087Z" fill="black"/>
<path d="M75.359 1.5625C76.8434 1.5625 78.2028 1.82813 79.4424 2.35417C80.6768 2.86979 81.7445 3.57813 82.6507 4.47917C83.5674 5.38542 84.2757 6.47396 84.7757 7.75C85.2861 9.01563 85.5466 10.3906 85.5466 11.875C85.5466 13.224 85.2757 14.4792 84.7341 15.6458C84.2028 16.8125 83.4841 17.8333 82.5674 18.7083C81.6507 19.5729 80.5674 20.25 79.3174 20.75C78.0674 21.2396 76.7236 21.4792 75.2965 21.4792C73.8799 21.4792 72.5674 21.224 71.359 20.7083C70.1611 20.1823 69.1195 19.4583 68.234 18.5417C67.359 17.625 66.6611 16.5521 66.1507 15.3125C65.6351 14.0625 65.3799 12.7083 65.3799 11.25C65.3799 9.875 65.6351 8.59896 66.1507 7.41667C66.6611 6.23958 67.3643 5.21875 68.2549 4.35417C69.1403 3.49479 70.1924 2.8125 71.4007 2.3125C72.6195 1.8125 73.9424 1.5625 75.359 1.5625ZM74.7757 2.22917C73.5101 2.22917 72.3278 2.46875 71.234 2.9375C70.1351 3.39583 69.182 4.03125 68.3799 4.83333C67.5726 5.64063 66.9424 6.59375 66.484 7.6875C66.0361 8.77083 65.8174 9.95833 65.8174 11.25C65.8174 12.6146 66.057 13.8906 66.5465 15.0833C67.0309 16.2813 67.6924 17.3281 68.5257 18.2292C69.3695 19.1198 70.3643 19.8229 71.5049 20.3333C72.6559 20.8333 73.8851 21.0833 75.1924 21.0833C76.4268 21.0833 77.5778 20.8542 78.6507 20.3958C79.734 19.9271 80.6611 19.2917 81.4424 18.5C82.2341 17.7083 82.8486 16.7708 83.2966 15.6875C83.7549 14.6042 83.9841 13.4323 83.9841 12.1667C83.9841 10.75 83.7445 9.44792 83.2757 8.25C82.8018 7.04167 82.1507 5.99479 81.3174 5.10417C80.4841 4.20313 79.5049 3.5 78.3799 3C77.2653 2.48958 76.0674 2.22917 74.7757 2.22917ZM75.234 0C76.9528 0 78.5518 0.291667 80.0257 0.875C81.4945 1.45833 82.7653 2.28125 83.8382 3.33333C84.9059 4.39063 85.7393 5.63542 86.3382 7.0625C86.9476 8.49479 87.2549 10.0625 87.2549 11.7708C87.2549 13.2031 86.9893 14.5729 86.4632 15.875C85.932 17.1823 85.1507 18.3646 84.1091 19.4167C81.6611 22.0156 78.5257 23.3125 74.6924 23.3125C72.9268 23.3125 71.2965 23.0208 69.7965 22.4375C68.307 21.8437 67.0257 21.0313 65.9424 20C64.859 18.9583 64.0101 17.7292 63.4007 16.3125C62.8018 14.8854 62.5049 13.3281 62.5049 11.6458C62.5049 9.78646 62.8695 8.10417 63.609 6.60417C64.359 5.10417 65.4268 3.83333 66.8174 2.79167C68.0101 1.90625 69.3382 1.21875 70.7965 0.729167C72.2653 0.244792 73.7445 0 75.234 0ZM75.359 0.395833C73.7757 0.395833 72.2965 0.682292 70.9215 1.25C69.5465 1.80729 68.3486 2.58333 67.3382 3.58333C66.3226 4.58333 65.5257 5.76042 64.9424 7.10417C64.3695 8.45313 64.0882 9.89583 64.0882 11.4375C64.0882 13.0104 64.3799 14.4792 64.9632 15.8542C65.557 17.2187 66.3643 18.4115 67.3799 19.4375C68.3903 20.4531 69.5882 21.2448 70.9632 21.8125C72.3486 22.3854 73.8382 22.6667 75.4215 22.6667C76.9893 22.6667 78.4684 22.3854 79.859 21.8125C81.2601 21.2448 82.4736 20.4583 83.5049 19.4583C84.5309 18.4583 85.3434 17.3021 85.9424 15.9792C86.5361 14.6615 86.8382 13.2448 86.8382 11.7292C86.8382 10.1875 86.5726 8.73958 86.0466 7.375C85.5309 6 84.7861 4.82813 83.8174 3.85417C82.7601 2.74479 81.4841 1.89063 79.9841 1.29167C78.4945 0.697917 76.9528 0.395833 75.359 0.395833Z" fill="black"/>
<path d="M94.6842 3.70833C94.6842 3.36458 94.7155 3.07292 94.7884 2.83333C94.8561 2.59896 94.9863 2.42708 95.1842 2.3125C95.377 2.1875 95.6478 2.10417 95.9967 2.0625C96.3405 2.02083 96.7884 2 97.3301 2C98.9967 2 100.314 2.42708 101.288 3.27083C102.273 4.10417 102.768 5.22396 102.768 6.625C102.768 8.11458 102.169 9.28646 100.976 10.1458C99.778 11.0104 98.1478 11.4375 96.0801 11.4375H94.7259L94.6842 3.70833ZM95.8717 11C96.6895 10.9896 97.377 10.9115 97.9342 10.7708C98.502 10.6198 99.0072 10.3906 99.4551 10.0833C100.007 9.68229 100.439 9.17708 100.747 8.5625C101.049 7.9375 101.205 7.27083 101.205 6.5625C101.205 5.99479 101.09 5.45833 100.872 4.95833C100.663 4.45833 100.372 4.03125 99.9967 3.66667C99.6217 3.30729 99.1634 3.02083 98.6217 2.8125C98.0905 2.59375 97.528 2.47917 96.9342 2.47917C96.627 2.47917 96.3353 2.51042 96.0592 2.5625C95.778 2.60417 95.5801 2.64583 95.4551 2.6875C95.3405 2.76042 95.2572 2.86458 95.2051 3C95.1634 3.125 95.1426 3.36458 95.1426 3.70833V11H95.8717ZM88.8926 22.7083C88.6426 22.7083 88.5176 22.6198 88.5176 22.4375C88.5176 22.3125 88.6061 22.2187 88.7884 22.1458L91.3717 21.0833C91.6738 20.9479 91.8613 20.8437 91.9342 20.7708C92.002 20.6875 92.0436 20.5521 92.0592 20.3542C92.0592 20.2187 92.0645 19.9896 92.0801 19.6667C92.0905 19.349 92.1061 18.9948 92.1217 18.6042C92.1322 18.2031 92.1426 17.8021 92.1426 17.3958C92.1426 16.9792 92.1426 16.6354 92.1426 16.3542V15.4792L92.0592 6.4375C92.0592 5.99479 92.0592 5.6875 92.0592 5.52083C92.0592 5.35417 92.0488 5.15625 92.0384 4.91667C92.0072 4.48958 91.9967 4.15625 91.9967 3.91667C91.9967 3.66667 91.9967 3.5 91.9967 3.41667C91.9811 3.01563 91.9655 2.76563 91.9551 2.66667C91.9395 2.57292 91.8926 2.47917 91.8092 2.39583C91.7103 2.30208 91.5072 2.19792 91.2051 2.08333L88.7467 1.22917C88.5905 1.16146 88.5176 1.05208 88.5176 0.895833C88.5176 0.677083 88.6478 0.5625 88.9134 0.5625L96.7676 0.5L97.7676 0.4375C98.7103 0.4375 99.5905 0.593749 100.413 0.895833C101.231 1.20313 101.939 1.64063 102.538 2.20833C103.132 2.78125 103.601 3.44792 103.934 4.20833C104.278 4.95833 104.455 5.79167 104.455 6.70833C104.455 8.18229 103.965 9.45313 102.997 10.5208C102.023 11.5937 100.695 12.3229 99.0176 12.7083L104.538 18.625C105.507 19.6979 106.314 20.474 106.955 20.9583C107.606 21.4479 108.257 21.7865 108.913 21.9792C109.215 22.0937 109.413 22.1875 109.497 22.2708C109.59 22.3437 109.643 22.4531 109.643 22.6042C109.643 22.8229 109.528 22.9688 109.309 23.0417C109.101 23.125 108.731 23.1667 108.205 23.1667C107.715 23.1667 107.226 23.1354 106.726 23.0833C106.236 23.026 105.835 22.9427 105.518 22.8333C105.236 22.75 104.965 22.6458 104.705 22.5208C104.455 22.3854 104.169 22.1875 103.851 21.9375C103.544 21.6771 103.195 21.3542 102.809 20.9792C102.434 20.5937 101.965 20.099 101.413 19.5L95.3509 13H95.1426L95.2467 19.8333C95.2467 20.1563 95.252 20.3698 95.2676 20.4792C95.2936 20.5781 95.3301 20.6667 95.3717 20.75C95.3978 20.7917 95.4863 20.8646 95.6426 20.9583C95.7936 21.0417 95.9603 21.1198 96.1426 21.1875L98.6217 22.0417C98.7572 22.0833 98.8301 22.1979 98.8301 22.375C98.8301 22.599 98.7051 22.7083 98.4551 22.7083H88.8926ZM108.997 22.4792C108.288 22.2865 107.538 21.8906 106.747 21.2917C105.965 20.6979 105.018 19.8021 103.893 18.6042L98.1634 12.4375C99.0905 12.2604 99.8509 12.0573 100.434 11.8333C101.018 11.599 101.528 11.2917 101.976 10.9167C102.611 10.3646 103.106 9.72396 103.455 9C103.814 8.26563 103.997 7.47396 103.997 6.625C103.997 5.76563 103.814 4.95313 103.455 4.1875C103.09 3.41146 102.564 2.76563 101.872 2.25C101.257 1.76563 100.58 1.41667 99.8301 1.20833C99.0801 1 98.1322 0.895833 96.9967 0.895833L94.4134 0.9375L89.8509 1.02083C90.2936 1.13542 90.653 1.22917 90.9342 1.3125C91.2259 1.39583 91.4863 1.47396 91.7259 1.54167C91.9759 1.59896 92.2259 1.67708 92.4759 1.77083C92.7363 1.86979 93.0645 1.98958 93.4551 2.125L93.5176 21.0417C93.127 21.2083 92.7936 21.3333 92.5176 21.4167C92.2363 21.5 91.9759 21.5937 91.7259 21.6875C91.4863 21.7708 91.2155 21.8542 90.9134 21.9375C90.6217 22.0104 90.2467 22.1146 89.7884 22.25H97.9759L95.6426 21.4583C95.4603 21.3906 95.3145 21.3229 95.2051 21.25C95.1061 21.1667 95.028 21.0729 94.9759 20.9583C94.9186 20.849 94.877 20.7031 94.8509 20.5208C94.8197 20.3281 94.8092 20.0729 94.8092 19.75L94.7259 12.6042H95.0801C95.3822 12.6042 95.5905 12.5781 95.7051 12.5208C95.8145 12.4687 95.9967 12.3125 96.2467 12.0625L102.705 18.9375C103.372 19.6458 103.96 20.2292 104.476 20.6875C105.002 21.1458 105.481 21.5313 105.913 21.8333C106.356 22.125 106.778 22.3333 107.184 22.4583C107.601 22.5833 108.028 22.6458 108.476 22.6458C108.518 22.6458 108.585 22.6458 108.684 22.6458C108.778 22.6458 108.882 22.6354 108.997 22.6042V22.4792Z" fill="black"/>
<path d="M118.909 16.1458C118.909 15.8958 118.998 15.7708 119.18 15.7708C119.289 15.7708 119.373 15.8542 119.43 16.0208L120.701 18.8958C120.878 19.2708 120.998 19.5104 121.055 19.6042C121.123 19.7031 121.248 19.8073 121.43 19.9167C121.847 20.2083 122.388 20.4479 123.055 20.625C123.722 20.7917 124.352 20.875 124.951 20.875C126.076 20.875 127.003 20.5573 127.743 19.9167C128.477 19.2813 128.847 18.4687 128.847 17.4792C128.847 16.7031 128.586 16.0104 128.076 15.3958C127.56 14.7865 126.706 14.1979 125.513 13.625L123.513 12.625C122.581 12.1667 121.784 11.7083 121.118 11.25C120.461 10.7813 119.93 10.3021 119.513 9.8125C119.107 9.3125 118.81 8.78125 118.618 8.20833C118.435 7.625 118.347 6.98958 118.347 6.29167C118.347 5.375 118.534 4.53125 118.909 3.75C119.284 2.97396 119.805 2.3125 120.472 1.77083C121.149 1.21875 121.961 0.786459 122.909 0.479167C123.868 0.161459 124.909 0 126.034 0C126.81 0 127.545 0.057292 128.243 0.166667C128.935 0.281251 129.67 0.458333 130.451 0.708333V6.625C130.451 6.84896 130.373 6.95833 130.222 6.95833C130.081 6.95833 129.972 6.84896 129.888 6.625L128.555 3.8125C128.305 3.26042 127.93 2.85417 127.43 2.60417C126.94 2.35417 126.274 2.22917 125.43 2.22917C124.857 2.22917 124.326 2.32813 123.826 2.52083C123.326 2.70313 122.894 2.95313 122.534 3.27083C122.17 3.59375 121.888 3.97396 121.68 4.41667C121.472 4.86458 121.368 5.33333 121.368 5.83333C121.368 6.61458 121.638 7.30208 122.18 7.89583C122.722 8.49479 123.649 9.11458 124.972 9.75L127.138 10.8333C128.857 11.6979 130.076 12.5833 130.784 13.5C131.503 14.4063 131.868 15.5104 131.868 16.8125C131.868 17.7604 131.701 18.6198 131.368 19.3958C131.034 20.1771 130.555 20.849 129.93 21.4167C129.315 21.974 128.586 22.4063 127.743 22.7083C126.894 23.0104 125.951 23.1667 124.909 23.1667C123.935 23.1667 122.935 23.0885 121.909 22.9375C120.878 22.7813 119.899 22.5573 118.972 22.25L118.909 16.1458ZM119.243 16.6042C119.326 17.1615 119.399 17.6198 119.472 17.9792C119.539 18.3281 119.602 18.6615 119.659 18.9792C119.711 19.3021 119.774 19.625 119.847 19.9583C119.93 20.2917 120.024 20.724 120.138 21.25C120.732 21.5156 121.248 21.7292 121.68 21.8958C122.107 22.0625 122.513 22.1979 122.888 22.2917C123.263 22.3906 123.623 22.4583 123.972 22.5C124.331 22.5313 124.722 22.5417 125.138 22.5417C126.097 22.5417 126.961 22.4063 127.743 22.125C128.519 21.849 129.185 21.4583 129.743 20.9583C130.295 20.4479 130.722 19.8333 131.013 19.125C131.315 18.4063 131.472 17.6146 131.472 16.75C131.472 15.5573 131.118 14.5208 130.409 13.6458C129.701 12.7708 128.524 11.9375 126.888 11.1458L124.847 10.1042C124.107 9.76042 123.498 9.41667 123.013 9.08333C122.524 8.75 122.128 8.42708 121.826 8.10417C121.519 7.77083 121.295 7.42708 121.159 7.0625C121.034 6.6875 120.972 6.28125 120.972 5.83333C120.972 4.57292 121.435 3.55729 122.368 2.79167C123.31 2.01563 124.545 1.625 126.076 1.625C126.602 1.625 127.097 1.65625 127.555 1.70833C128.024 1.76563 128.534 1.86979 129.076 2.02083C129.243 2.60417 129.399 3.22917 129.555 3.89583C129.706 4.55208 129.873 5.26563 130.055 6.04167L130.076 1.02083C129.545 0.828125 128.993 0.6875 128.409 0.604167C127.836 0.510416 127.201 0.458333 126.493 0.458333C124.576 0.458333 123.034 0.906251 121.868 1.79167C121.201 2.30729 120.67 2.93229 120.284 3.66667C119.894 4.40625 119.701 5.16146 119.701 5.9375C119.701 7.02083 120.06 7.98958 120.784 8.83333C121.503 9.68229 122.649 10.4896 124.222 11.25L126.201 12.2083C127.628 12.8906 128.649 13.599 129.263 14.3333C129.873 15.0573 130.18 15.9167 130.18 16.9167C130.18 17.5573 130.055 18.1563 129.805 18.7083C129.565 19.25 129.232 19.724 128.805 20.125C128.388 20.5313 127.888 20.8437 127.305 21.0625C126.722 21.2708 126.086 21.375 125.409 21.375C125.003 21.375 124.597 21.349 124.18 21.2917C123.763 21.2396 123.352 21.1563 122.951 21.0417C122.545 20.9323 122.18 20.8125 121.847 20.6875C121.524 20.5521 121.263 20.3958 121.055 20.2292C120.998 20.1615 120.94 20.1146 120.888 20.0833C120.831 20.0417 120.774 19.9792 120.722 19.8958C120.68 19.8021 120.623 19.6771 120.555 19.5208C120.498 19.3698 120.399 19.1615 120.263 18.8958L119.243 16.6042Z" fill="black"/>
<path d="M146.816 12.2712C146.217 12.2868 145.691 12.292 145.232 12.292C144.785 12.292 144.41 12.292 144.107 12.292C143.3 12.292 142.107 12.266 140.524 12.2087L143.462 4.43783L143.732 2.29199L147.899 12.7712L146.816 12.2712ZM143.503 5.43783L141.087 11.7087C141.722 11.7503 142.285 11.7816 142.774 11.792C143.274 11.8076 143.68 11.8128 144.003 11.8128C144.238 11.8128 144.529 11.8128 144.878 11.8128C145.222 11.8128 145.613 11.8024 146.045 11.7712L143.503 5.43783ZM132.128 22.7087C131.868 22.7087 131.732 22.5993 131.732 22.3753C131.732 22.266 131.826 22.1566 132.003 22.042L133.962 21.1878C134.337 21.0107 134.571 20.8753 134.67 20.792C134.764 20.6982 134.868 20.5628 134.982 20.3962C135.118 20.1357 135.222 19.9066 135.295 19.7087C135.378 19.5003 135.451 19.3076 135.524 19.1253C135.607 18.9482 135.691 18.7607 135.774 18.5628C135.868 18.3701 135.972 18.1253 136.087 17.8337L140.378 6.77116C140.712 5.88574 140.988 5.14095 141.212 4.54199C141.43 3.93262 141.618 3.39095 141.774 2.91699C141.925 2.43262 142.066 1.97949 142.191 1.56283C142.326 1.14616 142.467 0.682618 142.607 0.166992L145.024 0.208659C145.274 1.14095 145.529 2.01595 145.795 2.83366C146.071 3.64095 146.399 4.51074 146.774 5.43783L150.962 15.9795C151.514 17.3701 151.951 18.4326 152.274 19.167C152.592 19.891 152.805 20.3545 152.92 20.5628C153.029 20.7295 153.128 20.8493 153.212 20.917C153.295 20.9899 153.524 21.1149 153.899 21.292L155.607 22.042C155.8 22.141 155.899 22.2503 155.899 22.3753C155.899 22.5993 155.753 22.7087 155.462 22.7087H146.712C146.43 22.7087 146.295 22.5993 146.295 22.3753C146.295 22.266 146.389 22.1566 146.587 22.042L148.566 21.2503C148.883 21.141 149.087 21.0524 149.17 20.9795C149.253 20.8962 149.295 20.7868 149.295 20.6462C149.295 20.4118 149.212 20.0837 149.045 19.667L146.92 14.0212C145.42 13.9535 144.3 13.917 143.566 13.917C142.816 13.917 141.712 13.9535 140.253 14.0212L138.191 19.5837C138.024 20.0576 137.925 20.3441 137.899 20.4378C137.868 20.5212 137.857 20.5837 137.857 20.6253C137.857 20.7399 137.899 20.8285 137.982 20.8962C138.076 20.9535 138.258 21.0368 138.524 21.1462L140.545 22.042C140.753 22.1566 140.857 22.266 140.857 22.3753C140.857 22.5993 140.712 22.7087 140.42 22.7087H132.128ZM155.107 22.2712L153.545 21.6462C153.295 21.5785 153.097 21.5003 152.962 21.417C152.821 21.3337 152.675 21.1774 152.524 20.9378C152.383 20.6878 152.212 20.3128 152.003 19.8128C151.805 19.3128 151.535 18.6201 151.191 17.7295L146.357 5.47949C146.258 5.26074 146.149 4.97949 146.024 4.64616C145.91 4.31283 145.795 3.99512 145.67 3.68783C145.545 3.37012 145.441 3.08366 145.357 2.83366C145.274 2.58366 145.217 2.41699 145.191 2.33366C145.118 2.08366 145.05 1.86491 144.982 1.66699C144.925 1.45866 144.863 1.24512 144.795 1.02116C144.764 1.02116 144.722 0.906576 144.67 0.666992H142.941L143.524 1.72949L136.045 21.1253C135.68 21.2816 135.383 21.3962 135.149 21.4795C134.925 21.5628 134.701 21.6462 134.482 21.7295C134.258 21.8128 134.024 21.8962 133.774 21.9795C133.535 22.0524 133.232 22.141 132.857 22.2503H140.024L138.003 21.417C137.555 21.2399 137.337 21.0316 137.337 20.792C137.337 20.6826 137.446 20.3076 137.67 19.667L139.92 13.6253L147.42 13.5003L147.982 12.9587L151.149 21.0837C150.758 21.266 150.43 21.4066 150.17 21.5003C149.904 21.5993 149.649 21.6878 149.399 21.7712C149.16 21.8441 148.899 21.917 148.607 22.0003C148.316 22.0732 147.941 22.1618 147.482 22.2712H155.107Z" fill="black"/>
<path d="M162.166 3.85433C162.166 3.26058 162.177 2.87516 162.208 2.7085C162.234 2.54183 162.338 2.41683 162.521 2.3335C162.713 2.22412 163.104 2.13558 163.687 2.06266C164.281 1.99495 164.864 1.9585 165.437 1.9585C166.88 1.9585 168.01 2.29183 168.833 2.9585C169.666 3.61475 170.083 4.51579 170.083 5.66683C170.083 7.05745 169.338 8.25016 167.854 9.25016C167.172 9.69808 166.468 10.021 165.75 10.2293C165.041 10.4272 164.208 10.521 163.25 10.521C163.026 10.521 162.843 10.521 162.708 10.521C162.567 10.521 162.385 10.495 162.166 10.4377V3.85433ZM162.521 10.0835C162.823 10.0991 163.041 10.1043 163.166 10.1043C163.291 10.1043 163.396 10.1043 163.479 10.1043C164.979 10.1043 166.198 9.72412 167.146 8.9585C168.088 8.18245 168.562 7.17725 168.562 5.93766C168.562 4.81266 168.213 3.94808 167.521 3.3335C166.838 2.7085 165.864 2.396 164.604 2.396C163.838 2.396 163.297 2.46891 162.979 2.60433C162.656 2.72933 162.5 2.94808 162.5 3.25016L162.521 10.0835ZM162.187 11.8335C162.588 11.7918 162.927 11.7658 163.208 11.7502C163.484 11.7397 163.781 11.7293 164.104 11.7293C166.448 11.7293 168.276 12.1408 169.583 12.9585C170.901 13.7658 171.562 14.8856 171.562 16.3127C171.562 17.021 171.406 17.6668 171.104 18.2502C170.797 18.8231 170.359 19.3127 169.791 19.7293C169.234 20.146 168.567 20.4741 167.791 20.7085C167.01 20.9325 166.166 21.0418 165.25 21.0418C164.593 21.0418 164.031 21.0002 163.562 20.9168C163.088 20.8335 162.76 20.7189 162.583 20.5627C162.468 20.4533 162.396 20.3127 162.354 20.146C162.312 19.9793 162.291 19.7397 162.291 19.4168L162.187 11.8335ZM162.583 19.2293C162.609 19.6043 162.646 19.87 162.687 20.021C162.729 20.1772 162.817 20.2866 162.958 20.3543C163.109 20.4377 163.375 20.5106 163.75 20.5627C164.125 20.6043 164.531 20.6252 164.979 20.6252C165.698 20.6252 166.359 20.521 166.958 20.3127C167.552 20.1043 168.073 19.8075 168.521 19.4168C168.963 19.0314 169.302 18.5783 169.541 18.0627C169.791 17.5366 169.916 16.9533 169.916 16.3127C169.916 14.7866 169.25 13.646 167.916 12.896C167.01 12.4116 165.692 12.1668 163.958 12.1668C163.666 12.1668 163.422 12.1772 163.229 12.1877C163.047 12.2033 162.802 12.2293 162.5 12.271L162.583 19.2293ZM156.333 22.646C156.083 22.646 155.958 22.5575 155.958 22.3752C155.958 22.2658 156.031 22.1772 156.187 22.1043L158.312 21.2085C158.713 21.0418 158.968 20.9272 159.083 20.8543C159.192 20.771 159.271 20.646 159.312 20.4793C159.354 20.3283 159.38 20.1252 159.396 19.8752C159.422 19.6252 159.442 19.3022 159.458 18.896C159.484 18.4793 159.5 17.9793 159.5 17.396C159.5 16.8022 159.5 16.0731 159.5 15.2085L159.416 7.91683C159.416 6.86475 159.385 5.86995 159.333 4.93766C159.291 4.01058 159.25 3.26058 159.208 2.68766C159.166 2.49495 159.114 2.36475 159.062 2.29183C159.021 2.22412 158.843 2.13558 158.541 2.021L156.187 1.10433C156.031 1.05225 155.958 0.94808 155.958 0.791829C155.958 0.666829 156 0.593912 156.083 0.562663C156.177 0.520996 156.396 0.500163 156.729 0.500163C157.031 0.500163 157.489 0.500163 158.104 0.500163C158.729 0.500163 159.364 0.494955 160.021 0.479329C160.672 0.468912 161.276 0.458496 161.833 0.458496C162.401 0.44808 162.812 0.437663 163.062 0.437663C163.547 0.411621 163.984 0.395996 164.375 0.395996C164.776 0.395996 165.088 0.395996 165.312 0.395996C167.146 0.395996 168.588 0.802245 169.646 1.60433C170.281 2.06266 170.776 2.646 171.125 3.35433C171.468 4.06266 171.646 4.81266 171.646 5.60433C171.646 6.28662 171.51 6.94808 171.25 7.5835C171 8.2085 170.63 8.76579 170.146 9.25016C169.906 9.50016 169.625 9.74496 169.291 9.97933C168.968 10.2033 168.547 10.4689 168.021 10.771C168.88 10.995 169.541 11.2085 170 11.4168C170.468 11.6252 170.896 11.8908 171.271 12.2085C171.864 12.7085 172.323 13.3127 172.646 14.021C172.963 14.7293 173.125 15.4793 173.125 16.271C173.125 17.3439 172.859 18.3283 172.333 19.2293C171.817 20.1356 171.088 20.8752 170.146 21.4585C169.729 21.7241 169.317 21.9325 168.916 22.0835C168.526 22.2397 168.093 22.3647 167.625 22.4585C167.166 22.5575 166.63 22.6252 166.021 22.6668C165.406 22.6981 164.672 22.7085 163.812 22.7085H163.416L156.333 22.646ZM164.041 22.271C165.302 22.3439 166.463 22.2502 167.521 22.0002C168.588 21.7397 169.51 21.3439 170.291 20.8127C171.083 20.2866 171.692 19.6408 172.125 18.8752C172.567 18.0991 172.791 17.245 172.791 16.3127C172.791 15.3856 172.562 14.5366 172.104 13.771C171.656 13.0106 171.026 12.396 170.208 11.9377C169.817 11.7189 169.359 11.5314 168.833 11.3752C168.317 11.2241 167.609 11.0731 166.708 10.9168C167.541 10.5418 168.166 10.2397 168.583 10.0002C169 9.76579 169.375 9.49496 169.708 9.18766C170.75 8.146 171.271 6.97412 171.271 5.66683C171.271 4.94808 171.109 4.26579 170.791 3.62516C170.468 2.97412 170.026 2.41683 169.458 1.9585C168.901 1.51579 168.302 1.2085 167.666 1.04183C167.041 0.875163 166.218 0.791829 165.208 0.791829C165.01 0.791829 164.833 0.791829 164.666 0.791829C164.51 0.791829 164.312 0.802245 164.062 0.812663C163.812 0.828288 163.468 0.843912 163.041 0.854329C162.609 0.869955 162.026 0.885579 161.291 0.895996C161.01 0.927245 160.797 0.937663 160.646 0.937663C160.505 0.937663 160.338 0.937663 160.146 0.937663L157.812 0.895996H157.146C157.63 1.03662 158.041 1.146 158.375 1.22933C158.708 1.31266 159 1.40641 159.25 1.50016C159.51 1.5835 159.76 1.66683 160 1.75016C160.25 1.82308 160.547 1.92725 160.896 2.06266V3.06266C160.88 3.18766 160.875 3.28141 160.875 3.3335C160.875 3.39079 160.875 3.47412 160.875 3.5835V3.81266L161 18.771V21.021C160.593 21.1772 160.26 21.3022 160 21.396C159.734 21.495 159.479 21.5835 159.229 21.6668C158.979 21.7397 158.708 21.8127 158.416 21.896C158.125 21.9793 157.755 22.0835 157.312 22.2085L163.812 22.271H164.041Z" fill="black"/>
<path d="M187.54 1.5625C189.024 1.5625 190.383 1.82813 191.623 2.35417C192.857 2.86979 193.925 3.57813 194.831 4.47917C195.748 5.38542 196.456 6.47396 196.956 7.75C197.467 9.01563 197.727 10.3906 197.727 11.875C197.727 13.224 197.456 14.4792 196.915 15.6458C196.383 16.8125 195.665 17.8333 194.748 18.7083C193.831 19.5729 192.748 20.25 191.498 20.75C190.248 21.2396 188.904 21.4792 187.477 21.4792C186.061 21.4792 184.748 21.224 183.54 20.7083C182.342 20.1823 181.3 19.4583 180.415 18.5417C179.54 17.625 178.842 16.5521 178.331 15.3125C177.816 14.0625 177.561 12.7083 177.561 11.25C177.561 9.875 177.816 8.59896 178.331 7.41667C178.842 6.23958 179.545 5.21875 180.436 4.35417C181.321 3.49479 182.373 2.8125 183.581 2.3125C184.8 1.8125 186.123 1.5625 187.54 1.5625ZM186.956 2.22917C185.691 2.22917 184.508 2.46875 183.415 2.9375C182.316 3.39583 181.363 4.03125 180.561 4.83333C179.753 5.64063 179.123 6.59375 178.665 7.6875C178.217 8.77083 177.998 9.95833 177.998 11.25C177.998 12.6146 178.238 13.8906 178.727 15.0833C179.212 16.2813 179.873 17.3281 180.706 18.2292C181.55 19.1198 182.545 19.8229 183.686 20.3333C184.837 20.8333 186.066 21.0833 187.373 21.0833C188.607 21.0833 189.758 20.8542 190.831 20.3958C191.915 19.9271 192.842 19.2917 193.623 18.5C194.415 17.7083 195.029 16.7708 195.477 15.6875C195.936 14.6042 196.165 13.4323 196.165 12.1667C196.165 10.75 195.925 9.44792 195.456 8.25C194.982 7.04167 194.331 5.99479 193.498 5.10417C192.665 4.20313 191.686 3.5 190.561 3C189.446 2.48958 188.248 2.22917 186.956 2.22917ZM187.415 0C189.133 0 190.732 0.291667 192.206 0.875C193.675 1.45833 194.946 2.28125 196.019 3.33333C197.087 4.39063 197.92 5.63542 198.519 7.0625C199.128 8.49479 199.436 10.0625 199.436 11.7708C199.436 13.2031 199.17 14.5729 198.644 15.875C198.113 17.1823 197.331 18.3646 196.29 19.4167C193.842 22.0156 190.706 23.3125 186.873 23.3125C185.107 23.3125 183.477 23.0208 181.977 22.4375C180.488 21.8437 179.206 21.0313 178.123 20C177.04 18.9583 176.191 17.7292 175.581 16.3125C174.982 14.8854 174.686 13.3281 174.686 11.6458C174.686 9.78646 175.05 8.10417 175.79 6.60417C176.54 5.10417 177.607 3.83333 178.998 2.79167C180.191 1.90625 181.519 1.21875 182.977 0.729167C184.446 0.244792 185.925 0 187.415 0ZM187.54 0.395833C185.956 0.395833 184.477 0.682292 183.102 1.25C181.727 1.80729 180.529 2.58333 179.519 3.58333C178.503 4.58333 177.706 5.76042 177.123 7.10417C176.55 8.45313 176.269 9.89583 176.269 11.4375C176.269 13.0104 176.561 14.4792 177.144 15.8542C177.738 17.2187 178.545 18.4115 179.561 19.4375C180.571 20.4531 181.769 21.2448 183.144 21.8125C184.529 22.3854 186.019 22.6667 187.602 22.6667C189.17 22.6667 190.649 22.3854 192.04 21.8125C193.441 21.2448 194.654 20.4583 195.686 19.4583C196.712 18.4583 197.524 17.3021 198.123 15.9792C198.717 14.6615 199.019 13.2448 199.019 11.7292C199.019 10.1875 198.753 8.73958 198.227 7.375C197.712 6 196.967 4.82813 195.998 3.85417C194.941 2.74479 193.665 1.89063 192.165 1.29167C190.675 0.697917 189.133 0.395833 187.54 0.395833Z" fill="black"/>
<path d="M206.865 3.70833C206.865 3.36458 206.896 3.07292 206.969 2.83333C207.037 2.59896 207.167 2.42708 207.365 2.3125C207.558 2.1875 207.828 2.10417 208.177 2.0625C208.521 2.02083 208.969 2 209.511 2C211.177 2 212.495 2.42708 213.469 3.27083C214.453 4.10417 214.948 5.22396 214.948 6.625C214.948 8.11458 214.349 9.28646 213.157 10.1458C211.959 11.0104 210.328 11.4375 208.261 11.4375H206.907L206.865 3.70833ZM208.052 11C208.87 10.9896 209.558 10.9115 210.115 10.7708C210.683 10.6198 211.188 10.3906 211.636 10.0833C212.188 9.68229 212.62 9.17708 212.927 8.5625C213.229 7.9375 213.386 7.27083 213.386 6.5625C213.386 5.99479 213.271 5.45833 213.052 4.95833C212.844 4.45833 212.552 4.03125 212.177 3.66667C211.802 3.30729 211.344 3.02083 210.802 2.8125C210.271 2.59375 209.709 2.47917 209.115 2.47917C208.808 2.47917 208.516 2.51042 208.24 2.5625C207.959 2.60417 207.761 2.64583 207.636 2.6875C207.521 2.76042 207.438 2.86458 207.386 3C207.344 3.125 207.323 3.36458 207.323 3.70833V11H208.052ZM201.073 22.7083C200.823 22.7083 200.698 22.6198 200.698 22.4375C200.698 22.3125 200.787 22.2187 200.969 22.1458L203.552 21.0833C203.854 20.9479 204.042 20.8437 204.115 20.7708C204.183 20.6875 204.224 20.5521 204.24 20.3542C204.24 20.2187 204.245 19.9896 204.261 19.6667C204.271 19.349 204.287 18.9948 204.302 18.6042C204.313 18.2031 204.323 17.8021 204.323 17.3958C204.323 16.9792 204.323 16.6354 204.323 16.3542V15.4792L204.24 6.4375C204.24 5.99479 204.24 5.6875 204.24 5.52083C204.24 5.35417 204.229 5.15625 204.219 4.91667C204.188 4.48958 204.177 4.15625 204.177 3.91667C204.177 3.66667 204.177 3.5 204.177 3.41667C204.162 3.01563 204.146 2.76563 204.136 2.66667C204.12 2.57292 204.073 2.47917 203.99 2.39583C203.891 2.30208 203.688 2.19792 203.386 2.08333L200.927 1.22917C200.771 1.16146 200.698 1.05208 200.698 0.895833C200.698 0.677083 200.828 0.5625 201.094 0.5625L208.948 0.5L209.948 0.4375C210.891 0.4375 211.771 0.593749 212.594 0.895833C213.412 1.20313 214.12 1.64063 214.719 2.20833C215.313 2.78125 215.782 3.44792 216.115 4.20833C216.459 4.95833 216.636 5.79167 216.636 6.70833C216.636 8.18229 216.146 9.45313 215.177 10.5208C214.203 11.5937 212.875 12.3229 211.198 12.7083L216.719 18.625C217.688 19.6979 218.495 20.474 219.136 20.9583C219.787 21.4479 220.438 21.7865 221.094 21.9792C221.396 22.0937 221.594 22.1875 221.677 22.2708C221.771 22.3437 221.823 22.4531 221.823 22.6042C221.823 22.8229 221.709 22.9688 221.49 23.0417C221.282 23.125 220.912 23.1667 220.386 23.1667C219.896 23.1667 219.407 23.1354 218.907 23.0833C218.417 23.026 218.016 22.9427 217.698 22.8333C217.417 22.75 217.146 22.6458 216.886 22.5208C216.636 22.3854 216.349 22.1875 216.032 21.9375C215.724 21.6771 215.375 21.3542 214.99 20.9792C214.615 20.5937 214.146 20.099 213.594 19.5L207.532 13H207.323L207.427 19.8333C207.427 20.1563 207.433 20.3698 207.448 20.4792C207.474 20.5781 207.511 20.6667 207.552 20.75C207.578 20.7917 207.667 20.8646 207.823 20.9583C207.974 21.0417 208.141 21.1198 208.323 21.1875L210.802 22.0417C210.938 22.0833 211.011 22.1979 211.011 22.375C211.011 22.599 210.886 22.7083 210.636 22.7083H201.073ZM221.177 22.4792C220.469 22.2865 219.719 21.8906 218.927 21.2917C218.146 20.6979 217.198 19.8021 216.073 18.6042L210.344 12.4375C211.271 12.2604 212.032 12.0573 212.615 11.8333C213.198 11.599 213.709 11.2917 214.157 10.9167C214.792 10.3646 215.287 9.72396 215.636 9C215.995 8.26563 216.177 7.47396 216.177 6.625C216.177 5.76563 215.995 4.95313 215.636 4.1875C215.271 3.41146 214.745 2.76563 214.052 2.25C213.438 1.76563 212.761 1.41667 212.011 1.20833C211.261 1 210.313 0.895833 209.177 0.895833L206.594 0.9375L202.032 1.02083C202.474 1.13542 202.834 1.22917 203.115 1.3125C203.407 1.39583 203.667 1.47396 203.907 1.54167C204.157 1.59896 204.407 1.67708 204.657 1.77083C204.917 1.86979 205.245 1.98958 205.636 2.125L205.698 21.0417C205.308 21.2083 204.974 21.3333 204.698 21.4167C204.417 21.5 204.157 21.5937 203.907 21.6875C203.667 21.7708 203.396 21.8542 203.094 21.9375C202.802 22.0104 202.427 22.1146 201.969 22.25H210.157L207.823 21.4583C207.641 21.3906 207.495 21.3229 207.386 21.25C207.287 21.1667 207.209 21.0729 207.157 20.9583C207.099 20.849 207.058 20.7031 207.032 20.5208C207 20.3281 206.99 20.0729 206.99 19.75L206.907 12.6042H207.261C207.563 12.6042 207.771 12.5781 207.886 12.5208C207.995 12.4687 208.177 12.3125 208.427 12.0625L214.886 18.9375C215.552 19.6458 216.141 20.2292 216.657 20.6875C217.183 21.1458 217.662 21.5313 218.094 21.8333C218.537 22.125 218.959 22.3333 219.365 22.4583C219.782 22.5833 220.209 22.6458 220.657 22.6458C220.698 22.6458 220.766 22.6458 220.865 22.6458C220.959 22.6458 221.063 22.6354 221.177 22.6042V22.4792Z" fill="black"/>
</svg>
