<svg width="353" height="24" viewBox="0 0 353 24" fill="none" xmlns="http://www.w3.org/2000/svg">
<path d="M10.625 0C13.5417 0 15.9375 0.598959 17.8125 1.79167C19.6875 2.97396 20.6458 4.72396 20.6875 7.04167V7.4375H13.8333V7.29167C13.8333 6.64063 13.5885 6.09375 13.1042 5.64583C12.6146 5.20313 11.875 4.97917 10.875 4.97917C9.90104 4.97917 9.15104 5.125 8.625 5.41667C8.10937 5.69792 7.85417 6.05208 7.85417 6.47917C7.85417 7.07813 8.20833 7.52083 8.91667 7.8125C9.625 8.09375 10.7604 8.38542 12.3333 8.6875C14.1667 9.0625 15.6719 9.45833 16.8542 9.875C18.0469 10.2813 19.0833 10.9479 19.9583 11.875C20.8437 12.8073 21.2969 14.0625 21.3125 15.6458C21.3125 18.3437 20.401 20.3437 18.5833 21.6458C16.7604 22.9531 14.3229 23.6042 11.2708 23.6042C7.71354 23.6042 4.94271 23.0104 2.95833 21.8125C0.984375 20.6198 0 18.5104 0 15.4792H6.9375C6.9375 16.6354 7.23437 17.4063 7.83333 17.7917C8.42708 18.1823 9.35937 18.375 10.625 18.375C11.5417 18.375 12.3021 18.2813 12.9167 18.0833C13.526 17.875 13.8333 17.4687 13.8333 16.8542C13.8333 16.3021 13.4896 15.8854 12.8125 15.6042C12.1458 15.3281 11.0469 15.0365 9.52083 14.7292C7.65625 14.3281 6.11458 13.9115 4.89583 13.4792C3.6875 13.0521 2.63021 12.3437 1.72917 11.3542C0.822917 10.3542 0.375 9 0.375 7.29167C0.375 4.80729 1.33854 2.97396 3.27083 1.79167C5.19792 0.598959 7.65104 0 10.625 0Z" fill="black"/>
<path d="M36.3024 0C40.2295 0 43.266 1.01042 45.4066 3.02083C47.5576 5.03646 48.6357 7.96875 48.6357 11.8125C48.6357 15.6615 47.5576 18.5937 45.4066 20.6042C43.266 22.6042 40.2295 23.6042 36.3024 23.6042C32.3701 23.6042 29.3337 22.6042 27.1982 20.6042C25.0732 18.6042 24.0107 15.6771 24.0107 11.8125C24.0107 7.9375 25.0732 5 27.1982 3C29.3337 1 32.3701 0 36.3024 0ZM36.3024 5.47917C34.7295 5.47917 33.5368 5.95833 32.7191 6.91667C31.8962 7.86458 31.4899 9.14063 31.4899 10.75V12.875C31.4899 14.4896 31.8962 15.7708 32.7191 16.7292C33.5368 17.6771 34.7295 18.1458 36.3024 18.1458C37.8701 18.1458 39.0628 17.6771 39.8857 16.7292C40.7191 15.7708 41.1357 14.4896 41.1357 12.875V10.75C41.1357 9.14063 40.7191 7.86458 39.8857 6.91667C39.0628 5.95833 37.8701 5.47917 36.3024 5.47917Z" fill="black"/>
<path d="M65.3669 0.395996C66.7835 0.395996 68.0387 0.724121 69.1377 1.37516C70.2471 2.03141 71.1064 2.92725 71.721 4.06266C72.346 5.20329 72.6585 6.47933 72.6585 7.896V8.3335C72.6585 9.73975 72.346 11.0158 71.721 12.1668C71.1064 13.3231 70.2471 14.2241 69.1377 14.8752C68.0387 15.5314 66.7835 15.8543 65.3669 15.8543H59.8877V23.2085H52.5752V0.395996H65.3669ZM59.8877 10.521H62.9085C63.6846 10.521 64.2627 10.3231 64.6377 9.91683C65.0231 9.51579 65.221 8.97412 65.221 8.29183V8.021C65.221 7.31266 65.0231 6.771 64.6377 6.396C64.2627 6.01058 63.6846 5.81266 62.9085 5.81266H59.8877V10.521Z" fill="black"/>
<path d="M87.8356 0C91.7627 0 94.7992 1.01042 96.9398 3.02083C99.0908 5.03646 100.169 7.96875 100.169 11.8125C100.169 15.6615 99.0908 18.5937 96.9398 20.6042C94.7992 22.6042 91.7627 23.6042 87.8356 23.6042C83.9033 23.6042 80.8669 22.6042 78.7314 20.6042C76.6064 18.6042 75.5439 15.6771 75.5439 11.8125C75.5439 7.9375 76.6064 5 78.7314 3C80.8669 1 83.9033 0 87.8356 0ZM87.8356 5.47917C86.2627 5.47917 85.07 5.95833 84.2523 6.91667C83.4294 7.86458 83.0231 9.14063 83.0231 10.75V12.875C83.0231 14.4896 83.4294 15.7708 84.2523 16.7292C85.07 17.6771 86.2627 18.1458 87.8356 18.1458C89.4033 18.1458 90.596 17.6771 91.4189 16.7292C92.2523 15.7708 92.6689 14.4896 92.6689 12.875V10.75C92.6689 9.14063 92.2523 7.86458 91.4189 6.91667C90.596 5.95833 89.4033 5.47917 87.8356 5.47917Z" fill="black"/>
<path d="M125.754 7.396C125.754 8.78662 125.369 10.0522 124.608 11.1877C123.858 12.3127 122.765 13.1408 121.338 13.6668L126.4 23.2085H118.192L114.15 14.896H111.421V23.2085H104.108V0.395996H118.067C119.692 0.395996 121.077 0.718912 122.233 1.35433C123.4 1.97933 124.275 2.82829 124.858 3.896C125.452 4.96891 125.754 6.13558 125.754 7.396ZM118.296 7.68766C118.296 7.09391 118.093 6.59912 117.692 6.2085C117.285 5.80745 116.801 5.60433 116.233 5.60433H111.421V9.81266H116.233C116.801 9.81266 117.285 9.61475 117.692 9.2085C118.093 8.79183 118.296 8.28662 118.296 7.68766Z" fill="black"/>
<path d="M142.719 6.22933V23.2085H135.385V6.22933H127.906V0.395996H150.177V6.22933H142.719Z" fill="black"/>
<path d="M153.521 0.395996H173.23V5.87516H160.834V9.021H171.438V14.2502H160.834V17.7293H173.48V23.2085H153.521V0.395996Z" fill="black"/>
<path d="M201.609 6.22933V23.2085H194.276V6.22933H186.797V0.395996H209.068V6.22933H201.609Z" fill="black"/>
<path d="M212.412 0.395996H232.12V5.87516H219.725V9.021H230.329V14.2502H219.725V17.7293H232.37V23.2085H212.412V0.395996Z" fill="black"/>
<path d="M247.215 0C250.59 0 253.257 0.848959 255.215 2.54167C257.184 4.23958 258.174 6.65625 258.174 9.79167H251.194C251.194 8.45833 250.84 7.41146 250.132 6.64583C249.434 5.86979 248.45 5.47917 247.174 5.47917C245.684 5.47917 244.595 5.94792 243.903 6.875C243.205 7.79167 242.861 9.08333 242.861 10.75V12.875C242.861 14.5 243.205 15.7865 243.903 16.7292C244.595 17.6771 245.663 18.1458 247.111 18.1458C248.528 18.1458 249.595 17.7865 250.319 17.0625C251.054 16.3281 251.424 15.2917 251.424 13.9583H258.174C258.174 17.0729 257.215 19.4583 255.299 21.125C253.392 22.7813 250.7 23.6042 247.215 23.6042C243.325 23.6042 240.382 22.6146 238.382 20.625C236.382 18.6406 235.382 15.7031 235.382 11.8125C235.382 7.92708 236.382 4.98958 238.382 3C240.382 1 243.325 0 247.215 0Z" fill="black"/>
<path d="M278.436 23.2085L268.852 12.146V23.2085H262.123V0.395996H268.519L278.102 11.646V0.395996H284.831V23.2085H278.436Z" fill="black"/>
<path d="M290.062 23.2085V0.395996H297.375V23.2085H290.062Z" fill="black"/>
<path d="M313.496 0C316.871 0 319.538 0.848959 321.496 2.54167C323.465 4.23958 324.455 6.65625 324.455 9.79167H317.476C317.476 8.45833 317.121 7.41146 316.413 6.64583C315.715 5.86979 314.731 5.47917 313.455 5.47917C311.965 5.47917 310.877 5.94792 310.184 6.875C309.486 7.79167 309.142 9.08333 309.142 10.75V12.875C309.142 14.5 309.486 15.7865 310.184 16.7292C310.877 17.6771 311.944 18.1458 313.392 18.1458C314.809 18.1458 315.877 17.7865 316.601 17.0625C317.335 16.3281 317.705 15.2917 317.705 13.9583H324.455C324.455 17.0729 323.496 19.4583 321.58 21.125C319.674 22.7813 316.981 23.6042 313.496 23.6042C309.606 23.6042 306.663 22.6146 304.663 20.625C302.663 18.6406 301.663 15.7031 301.663 11.8125C301.663 7.92708 302.663 4.98958 304.663 3C306.663 1 309.606 0 313.496 0Z" fill="black"/>
<path d="M339.738 0C343.665 0 346.701 1.01042 348.842 3.02083C350.993 5.03646 352.071 7.96875 352.071 11.8125C352.071 15.6615 350.993 18.5937 348.842 20.6042C346.701 22.6042 343.665 23.6042 339.738 23.6042C335.806 23.6042 332.769 22.6042 330.634 20.6042C328.509 18.6042 327.446 15.6771 327.446 11.8125C327.446 7.9375 328.509 5 330.634 3C332.769 1 335.806 0 339.738 0ZM339.738 5.47917C338.165 5.47917 336.972 5.95833 336.155 6.91667C335.332 7.86458 334.925 9.14063 334.925 10.75V12.875C334.925 14.4896 335.332 15.7708 336.155 16.7292C336.972 17.6771 338.165 18.1458 339.738 18.1458C341.306 18.1458 342.498 17.6771 343.321 16.7292C344.155 15.7708 344.571 14.4896 344.571 12.875V10.75C344.571 9.14063 344.155 7.86458 343.321 6.91667C342.498 5.95833 341.306 5.47917 339.738 5.47917Z" fill="black"/>
</svg>
