<svg width="151" height="25" viewBox="0 0 151 25" fill="none" xmlns="http://www.w3.org/2000/svg">
<path d="M3.8125 23.7083C3.8125 21.5156 4.10937 19.5781 4.70833 17.8958C5.31771 16.2031 6.05208 14.7604 6.91667 13.5625C7.77604 12.3542 8.90625 10.9896 10.3125 9.45833C11.5208 8.125 12.4687 6.99479 13.1667 6.0625C13.8594 5.11979 14.3854 4.09896 14.75 3H2.97917C2.82292 4.19792 2.44792 5.1875 1.85417 5.97917C1.60417 6.35417 1.3125 6.6875 0.979167 6.97917H0V0.5H15.7292V2C15.7292 3.23958 15.5313 4.39063 15.1458 5.45833C14.7708 6.51563 14.1719 7.88542 13.3542 9.5625C12.5625 11.1354 11.9167 12.5313 11.4167 13.75C10.9167 14.9583 10.4844 16.4115 10.125 18.1042C9.77604 19.7865 9.60417 21.6563 9.60417 23.7083H3.8125Z" fill="black"/>
<path d="M27.5107 23.2083L29.4899 22.7083V1.5L27.5107 1V0.5H45.2399V6.47917H44.2399C43.8232 6.14583 43.4587 5.72396 43.1566 5.20833C42.4482 4.01563 42.0941 2.72396 42.0941 1.33333H34.9691V11.7708H38.7607C38.9274 10.9375 39.2191 10.1563 39.6357 9.41667C39.8128 9.08333 40.0212 8.76563 40.2607 8.45833H41.2607V15.9167H40.2607C40.0212 15.6146 39.8128 15.2917 39.6357 14.9583C39.2191 14.224 38.9274 13.4375 38.7607 12.6042H34.9691V22.875H42.7399C42.7399 21.4896 43.0941 20.1979 43.8024 19C44.1201 18.4896 44.4899 18.0729 44.9066 17.75H45.9066V23.7083H27.5107V23.2083Z" fill="black"/>
<path d="M53.0111 23.2083L55.0111 22.7083V1.33333H51.1986C51.1986 2.68229 50.8288 3.97396 50.0944 5.20833C49.7871 5.72396 49.4382 6.14583 49.0527 6.47917H48.0527V0.5H67.4486V6.47917H66.4486C66.0319 6.14583 65.6621 5.72396 65.3444 5.20833C64.6361 4.01563 64.2819 2.72396 64.2819 1.33333H60.4694V22.7083L62.4694 23.2083V23.7083H53.0111V23.2083Z" fill="black"/>
<path d="M65.6084 23.2087L68.2542 22.2087L77.3792 0.166992H78.3792L87.8167 22.7087L89.4834 23.2087V23.7087H85.5042C84.348 23.7087 83.4053 23.4535 82.6709 22.9378C81.9469 22.4118 81.4105 21.7295 81.0667 20.8962L79.3584 16.917H71.4417L69.2542 22.2087L71.7542 23.2087V23.7087H65.6084V23.2087ZM71.7751 16.0837H79.0459L75.4001 7.37533L71.7751 16.0837Z" fill="black"/>
<path d="M90.4766 23.2083L92.4557 22.7083V1.5L90.4766 1V0.5H99.7474C103.414 0.5 106.039 1.10417 107.622 2.3125C109.216 3.52083 110.018 5.29167 110.018 7.625C110.018 9.97396 109.216 11.75 107.622 12.9583C106.039 14.1563 103.414 14.75 99.7474 14.75H97.9349V22.7083L99.9141 23.2083V23.7083H90.4766V23.2083ZM99.7474 13.9375C101.133 13.9375 102.253 13.4115 103.102 12.3542C103.961 11.2865 104.393 9.70833 104.393 7.625C104.393 5.57292 103.961 4.01042 103.102 2.9375C102.253 1.86979 101.133 1.33333 99.7474 1.33333H97.9349V13.9375H99.7474Z" fill="black"/>
<path d="M108.193 23.2087L110.839 22.2087L119.964 0.166992H120.964L130.402 22.7087L132.068 23.2087V23.7087H128.089C126.933 23.7087 125.99 23.4535 125.256 22.9378C124.532 22.4118 123.995 21.7295 123.652 20.8962L121.943 16.917H114.027L111.839 22.2087L114.339 23.2087V23.7087H108.193V23.2087ZM114.36 16.0837H121.631L117.985 7.37533L114.36 16.0837Z" fill="black"/>
<path d="M141.167 24.2083C139.594 24.2083 138.13 23.8542 136.771 23.1458C136.146 22.8438 135.625 22.474 135.208 22.0417C134.901 22.5573 134.51 23.0156 134.042 23.4167C133.651 23.6979 133.427 23.8438 133.375 23.875H132.562V17.5833H133.875C134.208 18.6667 134.672 19.6406 135.271 20.5C136.615 22.4167 138.365 23.375 140.521 23.375C141.771 23.375 142.771 23 143.521 22.25C144.271 21.5 144.646 20.4948 144.646 19.2292C144.646 18.5104 144.427 17.8646 144 17.2917C143.568 16.7083 143.031 16.1979 142.396 15.75C141.755 15.3073 140.859 14.7604 139.708 14.1042C138.25 13.2865 137.068 12.5417 136.167 11.875C135.26 11.2083 134.49 10.375 133.854 9.375C133.214 8.375 132.896 7.1875 132.896 5.8125C132.896 4.72917 133.193 3.75 133.792 2.875C134.401 2 135.313 1.30729 136.521 0.791667C137.74 0.265625 139.234 0 141 0C142.292 0 143.573 0.369792 144.854 1.10417C145.339 1.36979 145.823 1.72396 146.313 2.16667C146.688 1.58333 147.073 1.13542 147.479 0.8125C147.865 0.520833 148.083 0.364584 148.125 0.333333H148.958V6.64583H147.646C147.354 5.57813 146.922 4.61458 146.354 3.75C145.813 2.91667 145.146 2.22396 144.354 1.66667C143.573 1.11458 142.677 0.833333 141.667 0.833333C140.802 0.833333 140.063 1.18229 139.438 1.875C138.823 2.55729 138.521 3.42708 138.521 4.47917C138.521 5.30208 138.755 6.03646 139.229 6.6875C139.698 7.34375 140.281 7.91146 140.979 8.39583C141.688 8.88542 142.635 9.46875 143.833 10.1458C145.219 10.9531 146.344 11.6667 147.208 12.2917C148.068 12.9063 148.797 13.6667 149.396 14.5833C149.99 15.5 150.292 16.5573 150.292 17.75C150.292 18.9479 149.943 20.0365 149.25 21.0208C148.568 21.9948 147.542 22.7708 146.167 23.3542C144.802 23.9219 143.135 24.2083 141.167 24.2083Z" fill="black"/>
</svg>
