<svg width="208" height="25" viewBox="0 0 208 25" fill="none" xmlns="http://www.w3.org/2000/svg">
<path d="M7.0625 0.854492C9.03125 0.854492 10.7552 1.18783 12.2292 1.85449C13.7135 2.52116 14.9479 3.41699 15.9375 4.54199C16.9219 5.66699 17.6562 6.93783 18.1458 8.35449C18.6458 9.77116 18.8958 11.2295 18.8958 12.7295C18.8958 14.2191 18.6458 15.667 18.1458 17.0837C17.6562 18.4899 16.9219 19.7607 15.9375 20.8962C14.9479 22.0212 13.7135 22.917 12.2292 23.5837C10.7552 24.2399 9.03125 24.5628 7.0625 24.5628H0V0.854492H7.0625ZM7.0625 5.60449H4.75V19.8128H7.0625C8.39583 19.8128 9.52604 19.5628 10.4583 19.0628C11.401 18.5524 12.151 17.8701 12.7083 17.0212C13.276 16.1774 13.651 15.2451 13.8333 14.2295C14.026 13.2035 14.026 12.1878 13.8333 11.1878C13.651 10.1878 13.276 9.26595 12.7083 8.41699C12.151 7.55762 11.401 6.87533 10.4583 6.37533C9.52604 5.86491 8.39583 5.60449 7.0625 5.60449Z" fill="black"/>
<path d="M40.3311 16.3128C40.3311 17.9274 40.0186 19.3076 39.3936 20.4587C38.779 21.5993 37.9665 22.516 36.9561 23.2087C35.9404 23.891 34.8206 24.3493 33.6019 24.5837C32.3936 24.818 31.1696 24.818 29.9352 24.5837C28.7113 24.3493 27.5915 23.891 26.5811 23.2087C25.5654 22.516 24.7477 21.5993 24.1227 20.4587C23.5081 19.3076 23.2061 17.9274 23.2061 16.3128V0.854492H27.9352V16.2712C27.9352 17.2712 28.1904 18.0732 28.7061 18.667C29.2321 19.266 29.8779 19.6618 30.6436 19.8545C31.404 20.0524 32.1696 20.0524 32.9352 19.8545C33.6956 19.6618 34.3363 19.266 34.8519 18.667C35.3779 18.0732 35.6436 17.2712 35.6436 16.2712V0.854492H40.3311V16.3128Z" fill="black"/>
<path d="M57.3809 24.5628L52.61 15.5212H50.3184V24.5628H45.5684V0.854492H54.9225C56.3392 0.854492 57.5319 1.15657 58.5059 1.75033C59.4902 2.33366 60.2611 3.09928 60.8184 4.04199C61.3704 4.97428 61.7142 5.98991 61.8392 7.08366C61.9746 8.18262 61.8913 9.26074 61.5892 10.3128C61.2975 11.3545 60.7871 12.2816 60.0684 13.0837C59.36 13.891 58.4121 14.4587 57.235 14.792L62.735 24.5628H57.3809ZM50.3184 10.917H54.485C55.1204 10.917 55.6361 10.7451 56.0267 10.3962C56.4121 10.0368 56.6725 9.59408 56.7975 9.06283C56.9329 8.52116 56.9329 7.98991 56.7975 7.45866C56.6725 6.93262 56.4121 6.49512 56.0267 6.14616C55.6361 5.78678 55.1204 5.60449 54.485 5.60449H50.3184V10.917Z" fill="black"/>
<path d="M63.7588 24.5625L73.738 0H74.238L84.2171 24.5625H78.8838L77.9255 22H70.0713L69.1338 24.5625H63.7588ZM71.7796 17.5625H76.1546L74.0088 11.3958L71.7796 17.5625Z" fill="black"/>
<path d="M87.5244 24.5627V0.833496H96.9202C98.3213 0.833496 99.5296 1.146 100.545 1.771C101.571 2.38558 102.358 3.22933 102.899 4.31266C103.441 5.396 103.691 6.63558 103.649 8.021C103.618 8.91162 103.431 9.78662 103.087 10.646C102.754 11.5106 102.212 12.1877 101.462 12.6877C102.222 13.2293 102.821 13.9272 103.254 14.771C103.681 15.62 103.899 16.5106 103.899 17.4377C103.899 18.7606 103.587 19.9585 102.962 21.0418C102.337 22.1147 101.488 22.9689 100.42 23.6043C99.363 24.245 98.1963 24.5627 96.9202 24.5627H87.5244ZM92.2952 5.56266V10.3335H96.5036C97.1963 10.3335 97.7327 10.0991 98.1077 9.62516C98.4932 9.15641 98.6911 8.59912 98.6911 7.9585C98.6911 7.29183 98.4932 6.72933 98.1077 6.271C97.7327 5.80225 97.1963 5.56266 96.5036 5.56266H92.2952ZM92.2952 15.0835V19.8127H96.5036C97.1963 19.8127 97.764 19.5835 98.2119 19.1252C98.6702 18.6668 98.8994 18.1043 98.8994 17.4377C98.8994 16.771 98.6702 16.2189 98.2119 15.771C97.764 15.3127 97.1963 15.0835 96.5036 15.0835H92.2952Z" fill="black"/>
<path d="M112.855 24.5628H108.105V0.854492H112.855V24.5628Z" fill="black"/>
<path d="M118.18 0.854492H122.93V19.8128H130.451V24.5628H118.18V0.854492Z" fill="black"/>
<path d="M139.269 24.5628H134.519V0.854492H139.269V24.5628Z" fill="black"/>
<path d="M151.655 0.854492C153.624 0.854492 155.348 1.18783 156.822 1.85449C158.306 2.52116 159.541 3.41699 160.53 4.54199C161.515 5.66699 162.249 6.93783 162.739 8.35449C163.239 9.77116 163.489 11.2295 163.489 12.7295C163.489 14.2191 163.239 15.667 162.739 17.0837C162.249 18.4899 161.515 19.7607 160.53 20.8962C159.541 22.0212 158.306 22.917 156.822 23.5837C155.348 24.2399 153.624 24.5628 151.655 24.5628H144.593V0.854492H151.655ZM151.655 5.60449H149.343V19.8128H151.655C152.989 19.8128 154.119 19.5628 155.051 19.0628C155.994 18.5524 156.744 17.8701 157.301 17.0212C157.869 16.1774 158.244 15.2451 158.426 14.2295C158.619 13.2035 158.619 12.1878 158.426 11.1878C158.244 10.1878 157.869 9.26595 157.301 8.41699C156.744 7.55762 155.994 6.87533 155.051 6.37533C154.119 5.86491 152.989 5.60449 151.655 5.60449Z" fill="black"/>
<path d="M165.036 24.5625L175.015 0H175.515L185.494 24.5625H180.161L179.203 22H171.349L170.411 24.5625H165.036ZM173.057 17.5625H177.432L175.286 11.3958L173.057 17.5625Z" fill="black"/>
<path d="M195.865 0.854492C197.834 0.854492 199.558 1.18783 201.032 1.85449C202.516 2.52116 203.751 3.41699 204.74 4.54199C205.725 5.66699 206.459 6.93783 206.949 8.35449C207.449 9.77116 207.699 11.2295 207.699 12.7295C207.699 14.2191 207.449 15.667 206.949 17.0837C206.459 18.4899 205.725 19.7607 204.74 20.8962C203.751 22.0212 202.516 22.917 201.032 23.5837C199.558 24.2399 197.834 24.5628 195.865 24.5628H188.803V0.854492H195.865ZM195.865 5.60449H193.553V19.8128H195.865C197.199 19.8128 198.329 19.5628 199.261 19.0628C200.204 18.5524 200.954 17.8701 201.511 17.0212C202.079 16.1774 202.454 15.2451 202.636 14.2295C202.829 13.2035 202.829 12.1878 202.636 11.1878C202.454 10.1878 202.079 9.26595 201.511 8.41699C200.954 7.55762 200.204 6.87533 199.261 6.37533C198.329 5.86491 197.199 5.60449 195.865 5.60449Z" fill="black"/>
</svg>
